<svg width="12" height="12" viewBox="0 0 12 12" fill="none" xmlns="http://www.w3.org/2000/svg">
<path d="M1.91663 0.166626C0.950128 0.166626 0.166626 0.950128 0.166626 1.91663V10.0833C0.166626 11.0498 0.950128 11.8333 1.91663 11.8333H10.0833C11.0498 11.8333 11.8333 11.0498 11.8333 10.0833V1.91663C11.8333 0.950128 11.0498 0.166626 10.0833 0.166626H1.91663ZM1.33329 1.91663C1.33329 1.59446 1.59446 1.33329 1.91663 1.33329H10.0833C10.4055 1.33329 10.6666 1.59446 10.6666 1.91663V10.0833C10.6666 10.4055 10.4055 10.6666 10.0833 10.6666H1.91663C1.59446 10.6666 1.33329 10.4055 1.33329 10.0833V1.91663ZM5.53744 8.16244L9.03744 4.66244C9.26524 4.43463 9.26524 4.06529 9.03744 3.83748C8.80963 3.60967 8.44029 3.60967 8.21248 3.83748L5.12496 6.925L3.78744 5.58748C3.55963 5.35967 3.19029 5.35967 2.96248 5.58748C2.73467 5.81529 2.73467 6.18463 2.96248 6.41244L4.71248 8.16244C4.94029 8.39024 5.30963 8.39024 5.53744 8.16244Z" fill="#F7AE10"/>
</svg>
