<svg width="188" height="64" viewBox="0 0 188 64" fill="none" xmlns="http://www.w3.org/2000/svg">
<g clip-path="url(#clip0_2849_6137)">
<path opacity="0.98" d="M67.4805 3.17153C76.6867 2.62081 85.8984 2.10864 95.1229 2.00768C100.685 1.97096 106.258 2.05173 111.802 2.5639C115.555 2.96593 119.386 3.39365 122.896 4.86591C128.333 7.46163 133.447 10.665 138.621 13.7417C140.755 14.9955 142.872 16.3025 145.134 17.3177C145.963 17.7142 146.883 17.8354 147.794 17.8831C153.314 18.2484 158.837 18.6926 164.297 19.6105C168.324 20.2916 172.336 21.1819 176.174 22.6027C178.561 23.4986 180.897 24.6 182.931 26.153C183.965 26.9534 184.934 27.8639 185.661 28.958C183.444 27.6381 181.231 26.2669 178.827 25.3086C180.684 26.3752 182.575 27.506 183.913 29.2206C184.483 29.417 185.114 29.3527 185.678 29.5877C185.008 29.8722 184.319 30.1127 183.631 30.3459C181.687 27.7979 178.884 26.1163 176.231 24.4054C175.023 23.5426 173.562 23.203 172.174 22.7478C167.443 21.2847 162.487 20.7762 157.565 20.4843C154.872 20.3154 152.168 20.3338 149.483 20.0566C147.527 19.8528 145.58 19.3719 143.851 18.4173C141.352 17.024 138.949 15.4599 136.436 14.0905C138.549 15.928 140.695 17.7601 142.527 19.8859C124.886 19.0267 107.244 18.1034 89.6047 17.191C82.572 16.8147 75.5393 16.4549 68.5085 16.0345C66.4121 15.8913 64.2955 15.7371 62.2615 15.1699C61.5456 14.9404 60.7397 14.6816 60.3175 14.0115C59.9797 13.3984 60.3854 12.7173 60.7856 12.2474C61.7108 11.1955 62.8838 10.4025 64.0201 9.60026C65.3841 8.6879 66.7076 7.69294 68.2093 7.01004C71.3208 5.56532 74.6967 4.80349 78.0635 4.23258C75.5467 4.17567 73.0281 4.37944 70.5131 4.47122C68.1285 4.60156 65.7384 4.69885 63.3721 5.02745C60.3377 5.30465 57.2702 4.88243 54.3532 4.03616C58.7222 3.67268 63.1059 3.45974 67.4805 3.17153ZM79.7891 4.25278C78.2727 7.75902 76.7344 11.2579 75.2566 14.7807C85.109 15.4159 94.9614 16.0767 104.816 16.6697C103.4 12.4144 101.965 8.16105 100.469 3.93336C93.9756 3.84341 87.4808 3.92418 80.9896 4.08205C80.5821 4.08389 80.1837 4.16466 79.7891 4.25278ZM102.987 4.00311C103.65 8.23448 104.318 12.4658 105.016 16.6917C116.816 17.4792 128.621 18.1896 140.421 18.9808C137.402 16.4127 134.439 13.7729 131.382 11.2524C126.407 8.60162 121.242 6.11788 115.696 4.9375C111.503 4.21606 107.231 4.11326 102.987 4.00311ZM63.6089 12.3171C63.2638 12.6329 62.9114 13.011 62.9572 13.5177C63.9118 14.0739 65.0481 14.0776 66.1184 14.1841C69.1198 14.375 72.1194 14.61 75.1226 14.755C76.0221 11.4158 76.9675 8.08945 77.8652 4.75209C72.626 6.14725 67.6384 8.66037 63.6089 12.3171Z" fill="#175B80"/>
<path opacity="0.98" d="M54.1219 4.68237C56.3211 5.91966 58.4616 7.26891 60.6112 8.59064C57.6336 10.4686 54.5937 12.2474 51.5519 14.0207C50.6799 14.5513 49.7033 14.9368 48.947 15.6417C48.2604 16.2713 47.6877 17.013 47.1773 17.7895C48.5982 18.7661 50.0613 19.684 51.5225 20.6C52.4367 20.8698 53.4188 20.8533 54.3642 20.9947C57.294 21.2957 60.2312 21.6464 63.1831 21.5546C73.1603 21.6702 83.1338 21.9474 93.1091 22.1824C110.673 22.6487 128.24 23.1351 145.798 23.8437C151.03 24.075 156.266 24.277 161.488 24.6845C165.72 24.9966 169.914 26.1935 173.588 28.3376C174.674 29.0003 175.765 29.6979 176.659 30.6157C173.143 28.8755 169.349 27.7777 165.514 27.0122C160.776 26.0448 155.943 25.685 151.12 25.494C135.504 24.8369 119.88 24.4146 104.258 23.9318C90.1353 23.4968 76.0093 23.1168 61.8907 22.5752C61.5181 22.5716 61.1454 22.5826 60.7783 22.645C64.2294 22.7239 67.6659 23.148 71.0749 23.6748C74.5774 24.2402 78.047 25.4335 80.9125 27.5684C83.567 29.5327 85.6469 32.3413 86.4913 35.5557C102.912 36.4111 119.331 37.2501 135.751 38.1C138.182 38.2138 140.61 38.3937 143.045 38.4213C140.592 38.5479 138.141 38.3295 135.691 38.3001C119.009 37.7934 102.33 37.3051 85.6506 36.7911C84.9016 33.764 83.0273 31.093 80.6464 29.1159C78.1057 27.0104 75.0052 25.6648 71.811 24.9176C68.4388 24.1485 64.9821 23.8474 61.5346 23.651C55.8603 23.3628 50.1732 23.4509 44.5008 23.7409C44.2934 24.6092 44.3687 25.5087 44.3007 26.3917C44.1888 28.1228 43.996 29.8576 43.5481 31.5354C43.3296 32.2826 43.0855 33.0683 42.5201 33.6318C41.2241 34.7939 41.0093 36.6792 41.0772 38.3203C41.1745 39.2657 41.281 40.4259 42.1731 40.9803C43.2562 41.687 44.4696 42.157 45.661 42.6416C48.3283 43.7027 51.0801 44.5287 53.8043 45.4282C50.2944 44.8647 46.768 44.3048 43.3553 43.2878C41.8409 42.8729 40.8294 41.5126 40.2878 40.1101C39.6747 38.4947 39.37 36.7452 39.4764 35.0197C39.6949 33.5345 41.0442 32.6516 42.0299 31.6676C42.4797 31.2656 42.4411 30.6084 42.5091 30.0613C42.7018 26.757 42.4834 23.405 43.1956 20.1502C43.4361 18.8946 44.354 17.9345 45.2406 17.0791C47.0378 15.4049 49.0792 14.0207 51.1388 12.6953C53.2573 11.3461 55.4344 10.0904 57.6483 8.90455C56.5175 7.46167 55.1995 6.16748 54.1219 4.68237Z" fill="#175B80"/>
<path opacity="0.98" d="M58.6947 29.7952C61.2922 28.2293 64.4056 27.7612 67.3979 27.9099C70.6581 28.0751 73.9955 28.8002 76.7289 30.6616C79.0786 32.2275 80.7914 34.6488 81.656 37.3217C82.3481 39.486 82.6455 41.7935 82.4252 44.0606C81.7661 41.2648 80.7859 38.5094 79.1759 36.1119C77.555 33.6392 75.2309 31.5666 72.4351 30.535C70.1368 29.6446 67.6218 29.5418 65.1877 29.7181C62.0357 29.953 58.8581 30.9627 56.4257 33.0389C55.0636 34.1679 54.0319 35.6365 53.2701 37.2244C54.0026 34.1679 55.9907 31.4106 58.6947 29.7952Z" fill="#175B80"/>
<path opacity="0.98" d="M154.685 29.7914C157.239 28.2531 160.295 27.7739 163.238 27.9024C166.465 28.053 169.767 28.7377 172.508 30.5257C174.663 31.9117 176.336 33.9989 177.287 36.3725C178.291 38.8434 178.636 41.5621 178.412 44.2129C177.488 39.7723 175.46 35.3427 171.844 32.4661C169.474 30.5716 166.426 29.6427 163.408 29.6519C160.04 29.5895 156.546 30.221 153.686 32.0879C151.752 33.3215 150.217 35.1334 149.262 37.217C149.978 34.155 151.983 31.405 154.685 29.7914Z" fill="#175B80"/>
<path opacity="0.98" d="M185.905 30.2356C186.008 33.0553 186.087 35.8915 185.808 38.7038C185.689 40.1283 185.189 41.4758 184.787 42.8342C184.428 43.9889 184.081 45.1472 183.69 46.2909C180.997 46.6892 178.298 47.1078 175.576 47.24C177.76 46.893 179.969 46.6103 182.093 45.9678C182.537 45.7934 183.157 45.6759 183.267 45.1234C184.789 40.3009 185.634 35.282 185.905 30.2356Z" fill="#175B80"/>
<path d="M30.1584 10.3384C36.8276 10.1585 43.4968 9.98045 50.166 9.79688C48.4624 10.6028 46.7442 11.3884 45.0039 12.1081C37.5986 11.7024 30.1933 11.137 22.7879 10.6799C22.3749 10.6542 21.9582 10.6211 21.558 10.5128C24.4236 10.5642 27.291 10.3843 30.1584 10.3384Z" fill="#F7AE10"/>
<path d="M-1.99997 17.1104C11.7129 16.7781 25.424 16.3247 39.1351 15.9539C39.5646 17.1452 39.9446 18.355 40.3485 19.5556C27.6471 18.8451 14.9457 18.1329 2.24608 17.4188C0.830727 17.3196 -0.5938 17.316 -1.99997 17.1104Z" fill="#F7AE10"/>
<path d="M12.8731 24.8039C21.8095 24.6001 30.7458 24.3614 39.6821 24.176C39.0635 24.936 38.5715 25.8465 37.8482 26.489C28.3612 26.0448 18.876 25.5345 9.38891 25.0645C8.77394 25.0296 8.15898 25.0682 7.54401 25.037C9.31365 24.8314 11.0961 24.8644 12.8731 24.8039Z" fill="#F7AE10"/>
<path d="M43.0284 62.9999L45.4432 48.4545H55.9261L55.3863 51.6363H48.8522L48.4545 54.1363H54.4488L53.9091 57.3181H47.9147L47.517 59.8181H54.0227L53.4829 62.9999H43.0284Z" fill="#175B80"/>
<path d="M60.9471 48.4545L62.6232 52.6874H62.7368L65.8618 48.4545H70.4357L64.8959 55.7272L68.1914 62.9999H63.788L62.0266 58.6818H61.913L58.7312 62.9999H54.1289L59.8107 55.7272L56.6857 48.4545H60.9471Z" fill="#175B80"/>
<path d="M68.7237 62.9999L71.1385 48.4545H77.4169C78.4964 48.4545 79.4055 48.6675 80.1441 49.0937C80.8828 49.5198 81.4131 50.1188 81.7351 50.8906C82.057 51.6623 82.1328 52.5643 81.9623 53.5965C81.7919 54.6477 81.4131 55.5544 80.826 56.3167C80.2436 57.0743 79.5002 57.659 78.5959 58.071C77.6962 58.4782 76.6877 58.6818 75.5703 58.6818H71.8203L72.3316 55.6136H75.2862C75.7597 55.6136 76.1763 55.5331 76.5362 55.3721C76.896 55.2064 77.1872 54.9744 77.4098 54.6761C77.6323 54.373 77.7767 54.0132 77.843 53.5965C77.9093 53.1799 77.8785 52.8247 77.7507 52.5312C77.6276 52.2329 77.4145 52.0056 77.1115 51.8494C76.8132 51.6884 76.432 51.6079 75.968 51.6079H74.576L72.6726 62.9999H68.7237Z" fill="#175B80"/>
<path d="M96.1044 55.9829C95.8392 57.5643 95.3137 58.8901 94.5277 59.9602C93.7417 61.0302 92.7876 61.8375 91.6655 62.382C90.5433 62.9265 89.343 63.1988 88.0646 63.1988C86.701 63.1988 85.5173 62.9029 84.5135 62.311C83.5097 61.7192 82.7781 60.8527 82.3189 59.7116C81.8596 58.5705 81.7673 57.1761 82.0419 55.5283C82.2976 53.9469 82.8184 52.6164 83.6044 51.5369C84.3904 50.4573 85.3492 49.6406 86.4808 49.0866C87.6124 48.5326 88.8222 48.2556 90.1101 48.2556C91.4642 48.2556 92.6408 48.5539 93.6399 49.1505C94.6437 49.7471 95.3728 50.6207 95.8274 51.7712C96.2867 52.9218 96.379 54.3257 96.1044 55.9829ZM92.1271 55.5283C92.2597 54.695 92.2691 53.9943 92.1555 53.4261C92.0419 52.8532 91.8028 52.4223 91.4382 52.1335C91.0736 51.8399 90.5835 51.6931 89.968 51.6931C89.2673 51.6931 88.647 51.8636 88.1072 52.2045C87.5674 52.5454 87.12 53.0354 86.7649 53.6746C86.4098 54.3139 86.1612 55.0833 86.0191 55.9829C85.8676 56.8257 85.8534 57.5264 85.9765 58.0852C86.1044 58.6439 86.3553 59.0629 86.7294 59.3423C87.1082 59.6216 87.6006 59.7613 88.2066 59.7613C88.8979 59.7613 89.5087 59.5956 90.039 59.2641C90.5741 58.9327 91.0168 58.4521 91.3672 57.8224C91.7223 57.1926 91.9756 56.428 92.1271 55.5283Z" fill="#175B80"/>
<path d="M95.7667 62.9999L98.1814 48.4545H104.46C105.539 48.4545 106.451 48.651 107.194 49.044C107.938 49.437 108.473 50.0028 108.799 50.7414C109.126 51.48 109.204 52.3655 109.034 53.3977C108.863 54.4393 108.487 55.3176 107.904 56.0326C107.327 56.7428 106.591 57.2826 105.696 57.6519C104.805 58.0165 103.806 58.1988 102.698 58.1988H98.9485L99.4598 55.1306H102.414C102.878 55.1306 103.286 55.0738 103.636 54.9602C103.986 54.8418 104.27 54.6571 104.488 54.4062C104.706 54.1505 104.848 53.8143 104.914 53.3977C104.981 52.981 104.948 52.6425 104.815 52.382C104.682 52.1169 104.462 51.9228 104.154 51.7996C103.847 51.6718 103.466 51.6079 103.011 51.6079H101.619L99.7155 62.9999H95.7667ZM105.397 56.3238L107.926 62.9999H103.636L101.193 56.3238H105.397Z" fill="#175B80"/>
<path d="M109.799 51.6363L110.338 48.4545H122.98L122.441 51.6363H118.066L116.191 62.9999H112.299L114.174 51.6363H109.799Z" fill="#175B80"/>
<path d="M123.028 62.9999L125.443 48.4545H131.722C132.801 48.4545 133.71 48.6675 134.449 49.0937C135.187 49.5198 135.718 50.1188 136.04 50.8906C136.362 51.6623 136.437 52.5643 136.267 53.5965C136.097 54.6477 135.718 55.5544 135.131 56.3167C134.548 57.0743 133.805 57.659 132.901 58.071C132.001 58.4782 130.992 58.6818 129.875 58.6818H126.125L126.636 55.6136H129.591C130.064 55.6136 130.481 55.5331 130.841 55.3721C131.201 55.2064 131.492 54.9744 131.714 54.6761C131.937 54.373 132.081 54.0132 132.148 53.5965C132.214 53.1799 132.183 52.8247 132.055 52.5312C131.932 52.2329 131.719 52.0056 131.416 51.8494C131.118 51.6884 130.737 51.6079 130.273 51.6079H128.881L126.977 62.9999H123.028Z" fill="#F7AE10"/>
<path d="M137.115 62.9999H132.854L140.07 48.4545H145.468L147.854 62.9999H143.593L142.172 52.4602H142.059L137.115 62.9999ZM137.286 57.2613H145.297L144.786 60.2158H136.774L137.286 57.2613Z" fill="#F7AE10"/>
<path d="M148.255 62.9999L150.67 48.4545H156.948C158.028 48.4545 158.939 48.651 159.683 49.044C160.426 49.437 160.961 50.0028 161.288 50.7414C161.614 51.48 161.692 52.3655 161.522 53.3977C161.352 54.4393 160.975 55.3176 160.393 56.0326C159.815 56.7428 159.079 57.2826 158.184 57.6519C157.294 58.0165 156.295 58.1988 155.187 58.1988H151.437L151.948 55.1306H154.903C155.367 55.1306 155.774 55.0738 156.124 54.9602C156.475 54.8418 156.759 54.6571 156.977 54.4062C157.194 54.1505 157.336 53.8143 157.403 53.3977C157.469 52.981 157.436 52.6425 157.303 52.382C157.171 52.1169 156.95 51.9228 156.643 51.7996C156.335 51.6718 155.954 51.6079 155.499 51.6079H154.107L152.204 62.9999H148.255ZM157.886 56.3238L160.414 62.9999H156.124L153.681 56.3238H157.886Z" fill="#F7AE10"/>
<path d="M162.287 51.6363L162.827 48.4545H175.469L174.929 51.6363H170.554L168.679 62.9999H164.787L166.662 51.6363H162.287Z" fill="#F7AE10"/>
<path d="M183.029 52.9999C183.071 52.5312 182.958 52.1642 182.688 51.8991C182.418 51.6292 181.963 51.4943 181.324 51.4943C180.917 51.4943 180.576 51.5416 180.301 51.6363C180.032 51.731 179.821 51.8612 179.669 52.0269C179.523 52.1926 179.43 52.3844 179.392 52.6022C179.35 52.7727 179.352 52.9289 179.399 53.071C179.452 53.2083 179.549 53.3337 179.691 53.4474C179.837 53.561 180.029 53.6628 180.266 53.7528C180.507 53.8427 180.794 53.9232 181.125 53.9943L182.262 54.2499C183.038 54.4204 183.689 54.6453 184.215 54.9246C184.745 55.1993 185.162 55.526 185.465 55.9048C185.768 56.2836 185.967 56.7073 186.061 57.1761C186.161 57.6448 186.163 58.1562 186.069 58.7102C185.908 59.6666 185.536 60.4763 184.953 61.1391C184.371 61.802 183.611 62.3063 182.674 62.6519C181.736 62.9976 180.652 63.1704 179.421 63.1704C178.161 63.1704 177.091 62.9834 176.211 62.6093C175.335 62.2305 174.7 61.6529 174.307 60.8764C173.919 60.0951 173.824 59.0984 174.023 57.8863H177.773C177.716 58.3314 177.764 58.7054 177.915 59.0085C178.067 59.3115 178.31 59.5411 178.647 59.6974C178.983 59.8536 179.402 59.9318 179.904 59.9318C180.33 59.9318 180.694 59.8797 180.997 59.7755C181.301 59.6713 181.54 59.5269 181.715 59.3423C181.89 59.1576 181.997 58.9469 182.034 58.7102C182.072 58.4924 182.034 58.2982 181.921 58.1278C181.807 57.9573 181.601 57.8034 181.303 57.6661C181.005 57.5288 180.595 57.4033 180.074 57.2897L178.682 56.9772C177.446 56.6931 176.514 56.2244 175.884 55.571C175.254 54.9175 175.032 54.0227 175.216 52.8863C175.368 51.9583 175.749 51.1486 176.36 50.4573C176.975 49.7613 177.756 49.2215 178.703 48.838C179.655 48.4497 180.709 48.2556 181.864 48.2556C183.038 48.2556 184.021 48.4521 184.811 48.8451C185.607 49.2381 186.177 49.7897 186.523 50.4999C186.873 51.2102 186.968 52.0435 186.807 52.9999H183.029Z" fill="#F7AE10"/>
</g>
<defs>
<clipPath id="clip0_2849_6137">
<rect width="188" height="64" fill="white"/>
</clipPath>
</defs>
</svg>
