<svg width="18" height="18" viewBox="0 0 18 18" fill="none" xmlns="http://www.w3.org/2000/svg">
<path fill-rule="evenodd" clip-rule="evenodd" d="M0.21967 0.21967C0.512563 -0.0732233 0.987437 -0.0732233 1.28033 0.21967L1.64473 0.584066C2.01837 0.957707 2.24858 1.45093 2.29503 1.9773L2.38527 3H16.5C16.7183 3 16.9258 3.09514 17.0683 3.26058C17.2108 3.42602 17.2741 3.64534 17.2417 3.86126L16.3083 10.0838C16.1431 11.1852 15.197 12 14.0832 12H3.17938L3.25138 12.8159C3.28554 13.2031 3.60981 13.5 3.99847 13.5H13.5C14.7426 13.5 15.75 14.5074 15.75 15.75C15.75 16.9926 14.7426 18 13.5 18C12.2574 18 11.25 16.9926 11.25 15.75C11.25 15.487 11.2951 15.2346 11.378 15H5.87197C5.95488 15.2346 6 15.487 6 15.75C6 16.9926 4.99264 18 3.75 18C2.50736 18 1.5 16.9926 1.5 15.75C1.5 15.1044 1.77188 14.5224 2.20738 14.1121C1.95793 13.7845 1.79579 13.3853 1.75718 12.9478L0.800833 2.10914C0.785352 1.93368 0.708613 1.76927 0.584066 1.64473L0.21967 1.28033C-0.0732233 0.987437 -0.0732233 0.512563 0.21967 0.21967ZM13.5 15C13.0858 15 12.75 15.3358 12.75 15.75C12.75 16.1642 13.0858 16.5 13.5 16.5C13.9142 16.5 14.25 16.1642 14.25 15.75C14.25 15.3358 13.9142 15 13.5 15ZM3.04703 10.5H14.0832C14.4545 10.5 14.7699 10.2284 14.8249 9.86126L15.6291 4.5H2.51762L3.04703 10.5ZM3.75 15C3.33579 15 3 15.3358 3 15.75C3 16.1642 3.33579 16.5 3.75 16.5C4.16421 16.5 4.5 16.1642 4.5 15.75C4.5 15.3358 4.16421 15 3.75 15Z" fill="white"/>
</svg>
