<svg width="17" height="17" viewBox="0 0 17 17" fill="none" xmlns="http://www.w3.org/2000/svg">
<path d="M10.9954 3.67292C8.97337 1.65091 5.69505 1.65091 3.67304 3.67292C1.65103 5.69492 1.65103 8.97324 3.67304 10.9953C5.69505 13.0173 8.97337 13.0173 10.9954 10.9953C13.0174 8.97324 13.0174 5.69492 10.9954 3.67292ZM2.49453 2.49441C5.16741 -0.178474 9.50101 -0.178474 12.1739 2.49441C14.6473 4.96782 14.8319 8.86333 12.7276 11.549L16.1659 14.9872C16.4913 15.3127 16.4913 15.8403 16.1659 16.1657C15.8404 16.4912 15.3128 16.4912 14.9873 16.1657L11.5491 12.7275C8.86345 14.8318 4.96794 14.6472 2.49453 12.1738C-0.178352 9.50088 -0.178352 5.16729 2.49453 2.49441Z" fill="white"/>
</svg>
