<svg width="54" height="22" viewBox="0 0 54 22" fill="none" xmlns="http://www.w3.org/2000/svg">
<circle cx="11" cy="11" r="11" fill="#7B32D8"/>
<path d="M10.1751 4.90761C10.6381 4.87806 11.1012 4.88904 11.5643 4.90311C12.1936 4.92141 12.823 4.99177 13.4386 5.12968C14.0129 5.25914 14.5777 5.45334 15.0957 5.74183C15.4764 5.9501 15.8226 6.23295 16.0865 6.58476C16.4424 7.05478 16.6691 7.61345 16.8244 8.18198C17.0841 9.17267 17.1377 10.2084 17.1006 11.2301C17.0827 11.7141 17.0415 12.1968 16.9865 12.6781C16.9068 13.3592 16.7241 14.0361 16.3805 14.6299C16.1641 15.0053 15.8824 15.3368 15.5492 15.608C15.295 15.8162 15.0078 15.9823 14.7096 16.1132C14.3675 16.2595 14.0074 16.3496 13.6502 16.4467C12.7529 16.662 11.8267 16.745 10.9061 16.738C10.6024 16.7338 10.2987 16.7211 9.99506 16.6944C9.69551 17.0518 9.3932 17.4064 9.08815 17.7582C8.9741 17.8849 8.86967 18.0228 8.74462 18.1382C8.64019 18.2325 8.5179 18.3183 8.37636 18.331C8.21285 18.3479 8.03559 18.2747 7.95314 18.1241C7.84184 17.9243 7.83772 17.6879 7.84046 17.4655C7.83772 17.0856 7.85008 16.7056 7.84596 16.3257C7.84733 16.3003 7.82397 16.2849 7.80336 16.2806C7.29907 16.1286 6.81675 15.8838 6.41139 15.5376C6.07704 15.2498 5.79712 14.9016 5.58556 14.5103C5.27363 13.9432 5.09638 13.3085 5.00019 12.6697C4.97545 12.5008 4.95209 12.3305 4.9411 12.1602C4.92736 11.9534 4.90537 11.7479 4.90263 11.5411C4.89988 11.3722 4.89576 11.2033 4.88889 11.0344C4.89438 10.3252 4.90812 9.61454 5.01668 8.91374C5.095 8.39447 5.22417 7.88223 5.43441 7.40237C5.60342 7.01819 5.82602 6.65653 6.10772 6.34694C6.22452 6.21606 6.35918 6.10489 6.49796 6.00076C6.99127 5.63488 7.56427 5.39987 8.14826 5.231C8.80921 5.04384 9.49214 4.94702 10.1751 4.90761ZM8.96585 6.0123C8.4327 6.12628 7.90505 6.29656 7.43098 6.57519C7.18089 6.72717 6.94042 6.90449 6.75355 7.13387C6.45262 7.49553 6.23963 7.92895 6.10359 8.38208C5.91534 9.00268 5.85076 9.65423 5.83015 10.3016C5.81503 11.129 5.78755 11.9663 5.95107 12.7811C6.04451 13.2568 6.2039 13.724 6.46086 14.1335C6.72947 14.5628 7.10328 14.9126 7.54503 15.1478C7.75389 15.2618 7.97787 15.3434 8.2046 15.4138C8.21285 15.5855 8.20597 15.7585 8.20735 15.9302C8.2101 16.4973 8.19223 17.0659 8.20185 17.633C8.20323 17.7019 8.19773 17.7751 8.23208 17.837C8.23981 17.8552 8.25246 17.8707 8.26854 17.8816C8.28462 17.8926 8.30345 17.8986 8.32277 17.899C8.37911 17.899 8.42858 17.8624 8.46843 17.8244C8.52477 17.7695 8.57698 17.709 8.62783 17.6513C9.13762 17.0645 9.61993 16.4523 10.1119 15.8486C10.1421 15.8134 10.1668 15.7698 10.2053 15.7431C10.263 15.7402 10.3207 15.7473 10.3784 15.7501C11.4722 15.7979 12.5784 15.7023 13.6364 15.4081C13.8329 15.3575 14.0294 15.3068 14.2177 15.2294C14.5983 15.076 14.9501 14.8424 15.2277 14.5328C15.5437 14.1867 15.7608 13.7575 15.901 13.3085C16.0521 12.8259 16.103 12.3178 16.1442 11.8155C16.1913 11.2699 16.2042 10.7218 16.1827 10.1746C16.1483 9.4893 16.0604 8.79975 15.8364 8.15102C15.6866 7.7204 15.4777 7.29964 15.1589 6.97457C14.9899 6.79725 14.7838 6.66357 14.5708 6.54817C14.127 6.31457 13.6488 6.15696 13.1624 6.0486C12.5303 5.90929 11.8817 5.85159 11.2359 5.84596C10.476 5.81388 9.71062 5.8575 8.96585 6.0123Z" fill="#F9F9F9"/>
<path d="M10.8814 7.29542C11.049 7.28557 11.218 7.30386 11.3843 7.32356C11.89 7.39111 12.3846 7.56701 12.8092 7.8569C13.2256 8.13694 13.5677 8.52675 13.8096 8.97144C14.1256 9.55544 14.2713 10.2281 14.2795 10.8923C14.2781 10.9444 14.2864 11.0007 14.2562 11.0471C14.2012 11.1344 14.0665 11.1512 13.9937 11.0781C13.947 11.0344 13.9456 10.9669 13.9442 10.9078C13.9374 10.3182 13.8178 9.7229 13.5485 9.19941C13.3231 8.75588 12.9863 8.38186 12.5729 8.11584C12.0961 7.80906 11.5341 7.65285 10.9734 7.643C10.9143 7.64019 10.8443 7.64441 10.7989 7.59656C10.7082 7.5065 10.7494 7.31258 10.8814 7.29542Z" fill="#F9F9F9"/>
<path d="M8.62783 7.68944C8.7886 7.64863 8.96311 7.7204 9.06616 7.84846C9.30663 8.15102 9.54848 8.45217 9.74222 8.7885C9.8178 8.92359 9.91124 9.05024 9.95521 9.20082C10.0033 9.38376 9.96758 9.60047 9.83154 9.73557C9.72574 9.83407 9.60894 9.91991 9.50038 10.0156C9.39732 10.1043 9.35885 10.252 9.37671 10.3843C9.39183 10.4659 9.42481 10.5419 9.45366 10.6179C9.63504 11.095 9.90987 11.5368 10.2726 11.89C10.5997 12.2095 10.9977 12.4428 11.4324 12.5697C11.5739 12.6077 11.7374 12.5627 11.8309 12.4459C11.9216 12.3319 12.004 12.2109 12.0988 12.1011C12.2046 11.9815 12.3723 11.9379 12.5262 11.9562C12.6306 11.966 12.7268 12.0181 12.8147 12.073C13.1637 12.2925 13.5045 12.5317 13.8109 12.8118C13.8989 12.8962 14.0019 12.975 14.0404 13.0975C14.1023 13.2649 14.0445 13.4493 13.9594 13.5956C13.8302 13.8123 13.6749 14.015 13.4853 14.181C13.3204 14.3218 13.1184 14.4386 12.8972 14.4386C12.7501 14.4456 12.6169 14.3766 12.4822 14.3274C11.9793 14.1261 11.5052 13.8602 11.0449 13.5759C10.6203 13.3128 10.2122 13.0215 9.84391 12.6809C9.14449 12.0378 8.59759 11.2371 8.17162 10.3829C7.96551 9.98183 7.76901 9.57233 7.62335 9.14312C7.56226 8.95291 7.57455 8.74597 7.65771 8.56474C7.78 8.29033 7.99574 8.07503 8.23071 7.89912C8.35163 7.81215 8.47942 7.72209 8.62783 7.68944Z" fill="#F9F9F9"/>
<path d="M11.1424 8.18085C11.2029 8.16537 11.2675 8.17944 11.3293 8.18366C11.8185 8.23714 12.3049 8.41727 12.6787 8.75219C12.9659 9.00408 13.1789 9.34182 13.297 9.70911C13.3956 10.0083 13.4362 10.3242 13.4166 10.6393C13.4097 10.7645 13.2421 10.8152 13.1541 10.742C13.0895 10.6984 13.0868 10.6111 13.0882 10.5408C13.0937 10.044 12.9384 9.53321 12.6072 9.16169C12.2802 8.79722 11.8116 8.59176 11.3362 8.53547C11.2592 8.52281 11.1754 8.52984 11.1053 8.49185C10.9968 8.42121 11.0188 8.22166 11.1424 8.18085Z" fill="#F9F9F9"/>
<path d="M11.3898 9.09415C11.4489 9.07585 11.5121 9.08852 11.5725 9.09415C11.8267 9.12511 12.0837 9.22221 12.2665 9.41359C12.4946 9.65423 12.588 10.0004 12.588 10.3297C12.5907 10.4071 12.5248 10.469 12.4547 10.4817C12.3764 10.5 12.2857 10.4535 12.2665 10.3705C12.2472 10.2875 12.2527 10.2016 12.2362 10.1186C12.2019 9.91175 12.1098 9.70207 11.9353 9.58246C11.78 9.46988 11.5863 9.44736 11.4021 9.42485C11.2496 9.3967 11.2441 9.13777 11.3898 9.09415Z" fill="#F9F9F9"/>
<circle cx="43" cy="11" r="11" fill="#3292D8"/>
<path d="M48.0971 6.12737C48.3104 6.12737 48.5949 6.06223 48.8082 6.19251C49.0215 6.25765 49.1637 6.51821 49.0926 6.71363C49.0215 7.43017 48.9504 8.14671 48.8082 8.86325C48.4526 11.2734 47.9549 13.6836 47.5282 16.0938C47.5282 16.2892 47.4571 16.4846 47.3149 16.6149C47.0305 17.0057 46.5327 17.2012 46.035 17.0709C45.8217 17.0057 45.6794 16.9406 45.5372 16.8103C44.044 15.8984 42.5507 14.9864 41.0575 14.0093C40.8441 13.879 40.773 13.5533 40.773 13.3579C40.8441 13.0322 41.1286 12.7065 41.413 12.5111C42.6218 11.4037 43.9729 10.4266 45.1106 9.31923C45.1817 9.25409 45.2528 9.12381 45.2528 8.99353C45.2528 8.92839 45.1106 8.92839 45.0395 8.92839C44.755 8.99353 44.5417 9.18895 44.2573 9.31923C42.6218 10.3615 41.0575 11.4037 39.3509 12.3808C39.0664 12.5111 38.8531 12.7065 38.4976 12.7716C37.9998 12.9019 37.5021 12.8368 37.0754 12.7065C36.7199 12.6414 36.3643 12.5111 36.0799 12.4459C35.8666 12.3808 35.5822 12.2505 35.3688 12.1854C35.1555 12.1202 34.8711 11.99 34.6578 11.8597C34.5156 11.7945 34.4444 11.6643 34.4444 11.534C34.4444 11.4037 34.5867 11.3386 34.7289 11.2734C35.8666 10.7523 37.0043 10.2312 38.142 9.77521C39.2798 9.31923 40.4175 8.86325 41.4841 8.47241C43.1907 7.82101 44.9684 7.16961 46.7461 6.51821C47.2438 6.38793 47.6705 6.19251 48.0971 6.12737Z" fill="white"/>
</svg>
