<svg width="22" height="22" viewBox="0 0 22 22" fill="none" xmlns="http://www.w3.org/2000/svg">
<circle cx="11" cy="11" r="11" fill="#7B32D8"/>
<path d="M10.1751 4.90761C10.6382 4.87806 11.1012 4.88904 11.5643 4.90311C12.1937 4.92141 12.823 4.99177 13.4386 5.12968C14.013 5.25914 14.5777 5.45334 15.0958 5.74183C15.4764 5.9501 15.8227 6.23295 16.0865 6.58476C16.4424 7.05478 16.6691 7.61345 16.8244 8.18198C17.0841 9.17267 17.1377 10.2084 17.1006 11.2301C17.0827 11.7141 17.0415 12.1968 16.9865 12.6781C16.9068 13.3592 16.7241 14.0361 16.3806 14.6299C16.1642 15.0053 15.8824 15.3368 15.5492 15.608C15.295 15.8162 15.0078 15.9823 14.7096 16.1132C14.3675 16.2595 14.0075 16.3496 13.6502 16.4467C12.7529 16.662 11.8268 16.745 10.9061 16.738C10.6024 16.7338 10.2988 16.7211 9.99509 16.6944C9.69554 17.0518 9.39323 17.4064 9.08818 17.7582C8.97413 17.8849 8.8697 18.0228 8.74465 18.1382C8.64022 18.2325 8.51793 18.3183 8.37639 18.331C8.21288 18.3479 8.03562 18.2747 7.95317 18.1241C7.84187 17.9243 7.83775 17.6879 7.84049 17.4655C7.83775 17.0856 7.85011 16.7056 7.84599 16.3257C7.84736 16.3003 7.824 16.2849 7.80339 16.2806C7.2991 16.1286 6.81679 15.8838 6.41142 15.5376C6.07707 15.2498 5.79715 14.9016 5.58559 14.5103C5.27367 13.9432 5.09641 13.3085 5.00022 12.6697C4.97548 12.5008 4.95212 12.3305 4.94113 12.1602C4.92739 11.9534 4.90541 11.7479 4.90266 11.5411C4.89991 11.3722 4.89579 11.2033 4.88892 11.0344C4.89441 10.3252 4.90815 9.61454 5.01671 8.91374C5.09503 8.39447 5.2242 7.88223 5.43444 7.40237C5.60345 7.01819 5.82606 6.65653 6.10775 6.34694C6.22455 6.21606 6.35921 6.10489 6.49799 6.00076C6.9913 5.63488 7.5643 5.39987 8.14829 5.231C8.80924 5.04384 9.49217 4.94702 10.1751 4.90761ZM8.96589 6.0123C8.43273 6.12628 7.90508 6.29656 7.43101 6.57519C7.18092 6.72717 6.94045 6.90449 6.75358 7.13387C6.45265 7.49553 6.23966 7.92895 6.10363 8.38208C5.91537 9.00268 5.85079 9.65423 5.83018 10.3016C5.81506 11.129 5.78758 11.9663 5.9511 12.7811C6.04454 13.2568 6.20393 13.724 6.46089 14.1335C6.7295 14.5628 7.10331 14.9126 7.54506 15.1478C7.75393 15.2618 7.9779 15.3434 8.20463 15.4138C8.21288 15.5855 8.20601 15.7585 8.20738 15.9302C8.21013 16.4973 8.19226 17.0659 8.20188 17.633C8.20326 17.7019 8.19776 17.7751 8.23211 17.837C8.23984 17.8552 8.25249 17.8707 8.26857 17.8816C8.28465 17.8926 8.30348 17.8986 8.3228 17.899C8.37914 17.899 8.42861 17.8624 8.46846 17.8244C8.5248 17.7695 8.57701 17.709 8.62786 17.6513C9.13765 17.0645 9.61996 16.4523 10.1119 15.8486C10.1421 15.8134 10.1669 15.7698 10.2053 15.7431C10.263 15.7402 10.3208 15.7473 10.3785 15.7501C11.4723 15.7979 12.5784 15.7023 13.6365 15.4081C13.833 15.3575 14.0295 15.3068 14.2177 15.2294C14.5983 15.076 14.9501 14.8424 15.2277 14.5328C15.5437 14.1867 15.7608 13.7575 15.901 13.3085C16.0521 12.8259 16.103 12.3178 16.1442 11.8155C16.1914 11.2699 16.2042 10.7218 16.1827 10.1746C16.1483 9.4893 16.0604 8.79975 15.8364 8.15102C15.6866 7.7204 15.4778 7.29964 15.159 6.97457C14.99 6.79725 14.7838 6.66357 14.5709 6.54817C14.127 6.31457 13.6488 6.15696 13.1624 6.0486C12.5303 5.90929 11.8817 5.85159 11.2359 5.84596C10.476 5.81388 9.71065 5.8575 8.96589 6.0123Z" fill="white"/>
<path d="M10.8814 7.29542C11.049 7.28557 11.218 7.30386 11.3843 7.32356C11.89 7.39111 12.3847 7.56701 12.8093 7.8569C13.2256 8.13694 13.5678 8.52675 13.8096 8.97144C14.1257 9.55544 14.2713 10.2281 14.2796 10.8923C14.2782 10.9444 14.2864 11.0007 14.2562 11.0471C14.2012 11.1344 14.0666 11.1512 13.9937 11.0781C13.947 11.0344 13.9456 10.9669 13.9443 10.9078C13.9374 10.3182 13.8179 9.7229 13.5485 9.19941C13.3231 8.75588 12.9863 8.38186 12.5729 8.11584C12.0961 7.80906 11.5341 7.65285 10.9735 7.643C10.9144 7.64019 10.8443 7.64441 10.7989 7.59656C10.7083 7.5065 10.7495 7.31258 10.8814 7.29542Z" fill="white"/>
<path d="M8.62786 7.68944C8.78863 7.64863 8.96314 7.7204 9.0662 7.84846C9.30666 8.15102 9.54851 8.45217 9.74226 8.7885C9.81783 8.92359 9.91127 9.05024 9.95524 9.20082C10.0033 9.38376 9.96761 9.60047 9.83157 9.73557C9.72577 9.83407 9.60897 9.91991 9.50041 10.0156C9.39735 10.1043 9.35888 10.252 9.37674 10.3843C9.39186 10.4659 9.42484 10.5419 9.45369 10.6179C9.63508 11.095 9.9099 11.5368 10.2727 11.89C10.5997 12.2095 10.9977 12.4428 11.4324 12.5697C11.5739 12.6077 11.7375 12.5627 11.8309 12.4459C11.9216 12.3319 12.004 12.2109 12.0988 12.1011C12.2047 11.9815 12.3723 11.9379 12.5262 11.9562C12.6306 11.966 12.7268 12.0181 12.8148 12.073C13.1638 12.2925 13.5046 12.5317 13.811 12.8118C13.8989 12.8962 14.002 12.975 14.0405 13.0975C14.1023 13.2649 14.0446 13.4493 13.9594 13.5956C13.8302 13.8123 13.6749 14.015 13.4853 14.181C13.3204 14.3218 13.1184 14.4386 12.8972 14.4386C12.7502 14.4456 12.6169 14.3766 12.4822 14.3274C11.9793 14.1261 11.5052 13.8602 11.0449 13.5759C10.6203 13.3128 10.2122 13.0215 9.84394 12.6809C9.14452 12.0378 8.59763 11.2371 8.17165 10.3829C7.96554 9.98183 7.76904 9.57233 7.62338 9.14312C7.56229 8.95291 7.57458 8.74597 7.65774 8.56474C7.78003 8.29033 7.99577 8.07503 8.23074 7.89912C8.35166 7.81215 8.47945 7.72209 8.62786 7.68944Z" fill="white"/>
<path d="M11.1425 8.18085C11.2029 8.16537 11.2675 8.17944 11.3293 8.18366C11.8185 8.23714 12.305 8.41727 12.6787 8.75219C12.9659 9.00408 13.1789 9.34182 13.2971 9.70911C13.3956 10.0083 13.4362 10.3242 13.4166 10.6393C13.4097 10.7645 13.2421 10.8152 13.1542 10.742C13.0896 10.6984 13.0868 10.6111 13.0882 10.5408C13.0937 10.044 12.9384 9.53321 12.6073 9.16169C12.2802 8.79722 11.8117 8.59176 11.3362 8.53547C11.2593 8.52281 11.1754 8.52984 11.1054 8.49185C10.9968 8.42121 11.0188 8.22166 11.1425 8.18085Z" fill="white"/>
<path d="M11.3898 9.09415C11.4489 9.07585 11.5121 9.08852 11.5726 9.09415C11.8268 9.12511 12.0837 9.22221 12.2665 9.41359C12.4946 9.65423 12.588 10.0004 12.588 10.3297C12.5908 10.4071 12.5248 10.469 12.4547 10.4817C12.3764 10.5 12.2857 10.4535 12.2665 10.3705C12.2472 10.2875 12.2527 10.2016 12.2363 10.1186C12.2019 9.91175 12.1098 9.70207 11.9353 9.58246C11.7801 9.46988 11.5863 9.44736 11.4022 9.42485C11.2496 9.3967 11.2442 9.13777 11.3898 9.09415Z" fill="white"/>
</svg>
