<svg width="80" height="80" viewBox="0 0 80 80" fill="none" xmlns="http://www.w3.org/2000/svg">
<rect width="80" height="80" fill="#F7AE10"/>
<path d="M48.4018 22.6953C49.0708 21.8212 50.6372 22.2558 50.8862 23.289C51.4507 25.5605 51.9878 27.8398 52.5435 30.1132C52.6948 30.6494 52.5776 31.2548 52.1968 31.6679C51.9243 31.997 51.5024 32.1269 51.1099 32.2499C48.979 32.916 46.856 33.6064 44.7231 34.2656C44.3452 34.4101 43.8784 34.1806 43.7817 33.7851C43.6616 33.4316 43.8716 33.0107 44.2261 32.8945C46.5288 32.1386 48.853 31.4462 51.1499 30.6747C50.6235 28.3681 50.0483 26.0703 49.4897 23.7705C48.9214 24.6757 48.4526 25.6396 47.9038 26.5556C47.2847 26.2665 46.6909 25.9238 46.0571 25.665C42.9839 24.3622 39.4897 24.1152 36.2485 24.8935C33.0815 25.6455 30.1714 27.414 28.0288 29.8622C25.7729 32.4238 24.3726 35.7304 24.1343 39.1367C23.8979 42.2206 24.5786 45.371 26.0962 48.0673C27.8208 51.1718 30.6196 53.6611 33.9028 55.0136C36.436 56.0654 39.2456 56.4335 41.9663 56.0898C46.1265 55.5917 50.0298 53.3398 52.5688 50.0107C54.6548 47.3212 55.8296 43.9404 55.853 40.5361C55.8394 40.2206 55.9233 39.8603 56.227 39.7031C56.6528 39.4199 57.2935 39.7451 57.3227 40.2529C57.3696 44.2294 55.9653 48.2011 53.4438 51.2753C51.1577 54.1034 47.9575 56.1796 44.4399 57.1054C41.688 57.8378 38.7534 57.8779 35.9829 57.2216C32.7085 56.4618 29.6753 54.7079 27.3706 52.2626C24.9341 49.704 23.3091 46.3828 22.8052 42.8837C22.2778 39.3495 22.8657 35.6552 24.4966 32.4726C26.1792 29.1542 28.9585 26.4062 32.2993 24.7675C36.936 22.4501 42.6206 22.3847 47.3071 24.6015C47.6938 23.9794 47.9976 23.3066 48.4018 22.6953Z" fill="white"/>
<path d="M38.2554 28.4941C40.5308 28.1699 42.9048 28.497 44.9888 29.4736C45.4898 29.6738 45.562 30.4365 45.1099 30.7295C44.8247 30.9707 44.4399 30.8574 44.1421 30.7099C40.8853 29.2597 36.894 29.6572 33.9858 31.7187C32.0523 33.0566 30.5894 35.0625 29.9194 37.3173C29.2144 39.666 29.3589 42.2627 30.3442 44.5097C31.4878 47.1689 33.7837 49.3046 36.522 50.2431C39.6314 51.3437 43.2534 50.8632 45.9507 48.956C46.2808 48.7382 46.6196 48.3593 47.0581 48.497C47.606 48.622 47.7866 49.4111 47.3384 49.7558C45.5239 51.2002 43.2651 52.0712 40.9556 52.2568C38.7925 52.4365 36.5806 52.0195 34.6401 51.0429C32.022 49.75 29.9136 47.456 28.8472 44.7363C27.9653 42.5293 27.7769 40.0547 28.2925 37.7363C28.8784 35.0547 30.4331 32.6025 32.5962 30.916C34.229 29.6338 36.2007 28.7881 38.2554 28.4941Z" fill="white"/>
<path d="M44.646 36.325C44.8667 35.9627 45.4077 35.87 45.729 36.1502C45.94 36.3065 46.0103 36.576 46.0015 36.827C46.0064 38.3807 45.9917 39.9344 46.0083 41.4881C46.5347 41.4969 47.061 41.4803 47.5874 41.4959C47.5991 41.9832 47.6011 42.4715 47.5884 42.9598C47.061 42.9686 46.5327 42.9549 46.0054 42.9676C45.9917 43.5848 46.0103 44.202 45.9985 44.8192C45.5103 44.8309 45.023 44.828 44.5357 44.8211C44.5161 44.2049 44.5357 43.5887 44.5269 42.9735C43.5025 42.9403 42.4771 42.9842 41.4536 42.9549C40.898 42.9354 40.5786 42.2186 40.9253 41.7869C42.1665 39.9676 43.4009 38.1414 44.646 36.325ZM42.9146 41.4862C43.4517 41.492 43.9898 41.4959 44.5269 41.4842C44.5298 40.703 44.5337 39.9217 44.522 39.1414C43.9673 39.909 43.4458 40.701 42.9146 41.4862Z" fill="white"/>
<path d="M35.5551 36.8046C36.521 35.8398 38.187 35.7324 39.2807 36.5439C40.0444 37.0751 40.4888 38.0468 40.3364 38.9716C40.2124 39.8398 39.6421 40.5712 38.9663 41.0966C38.1128 41.7607 37.2436 42.4482 36.646 43.3652C37.8491 43.3837 39.0522 43.3603 40.2554 43.3759C40.2573 43.8613 40.2593 44.3476 40.2544 44.833C38.4223 44.8456 36.5903 44.8437 34.7583 44.8339C34.8569 44.2089 34.8852 43.5517 35.1889 42.9814C35.7651 41.829 36.7573 40.9589 37.7563 40.1777C38.23 39.8095 38.7671 39.3974 38.8813 38.7714C38.9927 38.1708 38.4848 37.6152 37.9155 37.5087C37.3677 37.3759 36.7319 37.5761 36.4165 38.0576C36.2202 38.3417 36.2651 38.704 36.2378 39.0312C35.7563 39.0322 35.2739 39.0331 34.7925 39.0283C34.6987 38.2197 34.9546 37.3671 35.5551 36.8046Z" fill="white"/>
</svg>
