<svg width="17" height="17" viewBox="0 0 17 17" fill="none" xmlns="http://www.w3.org/2000/svg">
<path d="M10.9953 3.67292C8.97331 1.65091 5.69499 1.65091 3.67298 3.67292C1.65097 5.69492 1.65097 8.97324 3.67298 10.9953C5.69499 13.0173 8.97331 13.0173 10.9953 10.9953C13.0173 8.97324 13.0173 5.69492 10.9953 3.67292ZM2.49447 2.49441C5.16735 -0.178474 9.50094 -0.178474 12.1738 2.49441C14.6472 4.96782 14.8318 8.86333 12.7276 11.549L16.1658 14.9872C16.4912 15.3127 16.4912 15.8403 16.1658 16.1657C15.8404 16.4912 15.3127 16.4912 14.9873 16.1657L11.5491 12.7275C8.86339 14.8318 4.96788 14.6472 2.49447 12.1738C-0.178413 9.50088 -0.178413 5.16729 2.49447 2.49441Z" fill="#AFB7BA"/>
</svg>
