<svg width="14" height="14" viewBox="0 0 14 14" fill="none" xmlns="http://www.w3.org/2000/svg">
<path d="M9.39635 3.53848C7.77874 1.92088 5.15609 1.92088 3.53848 3.53848C1.92088 5.15609 1.92088 7.77874 3.53848 9.39635C5.15609 11.014 7.77874 11.014 9.39635 9.39635C11.014 7.77874 11.014 5.15609 9.39635 3.53848ZM2.59567 2.59567C4.73398 0.457368 8.20085 0.457368 10.3392 2.59567C12.3179 4.5744 12.4656 7.69081 10.7822 9.83934L13.5327 12.5899C13.7931 12.8503 13.7931 13.2724 13.5327 13.5327C13.2724 13.7931 12.8503 13.7931 12.5899 13.5327L9.83934 10.7822C7.69081 12.4656 4.5744 12.3179 2.59567 10.3392C0.457367 8.20085 0.457367 4.73398 2.59567 2.59567Z" fill="#0F2B3A"/>
</svg>
