<svg width="162" height="40" viewBox="0 0 162 40" fill="none" xmlns="http://www.w3.org/2000/svg">
<path d="M154.672 20.944C150.386 20.944 147.345 17.8295 147.345 13.8384C147.345 9.84725 150.386 6.73268 154.672 6.73268C158.958 6.73268 162 9.84725 162 13.8384C162 17.8295 158.958 20.944 154.672 20.944ZM9.79663 10.2948L6.06364 20.7575H4.91807L0 6.97513H1.87637L5.53036 17.27L9.2041 6.97513H10.3892L14.0827 17.27L17.7169 6.97513H19.613L14.6752 20.7575H13.5494L9.79663 10.2948ZM22.1412 13.0551H33.2217C32.8859 10.2575 30.7527 8.18739 27.6913 8.18739C24.6298 8.18739 22.4967 10.2575 22.1412 13.0551ZM22.1412 14.5471C22.4177 17.3819 24.5706 19.508 27.6913 19.508C29.0146 19.508 30.2787 19.135 31.365 18.4076C31.7798 18.1279 32.2736 17.7176 32.5501 17.3073L32.6489 17.1581H34.5647L34.2882 17.6616C33.9525 18.2771 33.3204 18.9112 32.7476 19.3588C31.3058 20.4964 29.5479 21 27.6715 21C23.346 21 20.3241 17.8668 20.3241 13.857C20.3241 9.84725 23.346 6.69538 27.6715 6.69538C29.3109 6.69538 30.9108 7.18028 32.2143 8.13144C33.1427 8.82149 33.8734 9.69805 34.3475 10.7052C34.861 11.8055 35.0783 13.0178 35.019 14.2114L34.9993 14.5284H22.1412V14.5471ZM39.4828 13.8384C39.4828 16.9716 41.6554 19.4893 45.0724 19.4893C48.4894 19.4893 50.6818 16.9529 50.6818 13.8384C50.6818 10.7238 48.5091 8.18739 45.0724 8.18739C41.6357 8.18739 39.4828 10.7238 39.4828 13.8384ZM39.4828 18.2211V20.7575H37.7249V0H39.4828V9.47425C39.7001 9.17584 39.9568 8.89609 40.1939 8.65364C41.5172 7.36679 43.1763 6.69538 45.0724 6.69538C49.398 6.69538 52.4199 9.8286 52.4199 13.8384C52.4199 17.8668 49.3782 20.9813 45.0724 20.9813C43.2158 20.9813 41.5764 20.3472 40.2531 19.0977C39.9766 18.8179 39.7198 18.5382 39.4828 18.2211ZM65.4557 8.74689C66.5223 7.40409 68.0629 6.73268 69.8208 6.73268C71.0849 6.73268 72.2897 7.04973 73.297 7.77709C75.1141 9.10124 75.7067 11.3206 75.7067 13.3908V20.7202H72.6452V13.6892C72.6452 11.8428 72.2107 9.47425 69.7418 9.47425C67.2729 9.47425 66.8383 11.8242 66.8383 13.6892V20.7202H63.7966V13.6892C63.7966 11.8428 63.3621 9.47425 60.8932 9.47425C58.4243 9.47425 57.9898 11.8242 57.9898 13.6892V20.7202H54.9283V6.95648H57.9898V7.51599C58.8786 6.95648 59.9056 6.71403 60.9722 6.71403C62.7696 6.73268 64.3694 7.36679 65.4557 8.74689ZM118.073 18.2025C119.159 18.2025 121.214 17.9973 121.214 16.6172C121.214 16.4307 121.194 16.2256 121.075 16.0577C120.641 15.349 118.725 15.0879 117.935 14.976C115.407 14.659 112.266 13.7638 112.266 10.8171C112.266 10.2389 112.385 9.6794 112.642 9.17584C113.609 7.25488 115.999 6.71403 118.053 6.71403C119.713 6.71403 121.431 7.10568 122.636 8.26199C123.386 8.98934 123.604 9.58615 123.801 10.3881H120.68C120.601 10.2762 120.463 10.127 120.404 10.0897C119.792 9.58615 118.863 9.4556 118.073 9.4556C117.125 9.4556 115.328 9.6048 115.328 10.8171C115.328 10.929 115.347 11.0595 115.407 11.1714C115.743 11.8055 117.56 12.1039 118.231 12.1972C120.996 12.5888 124.255 13.3535 124.255 16.5986C124.255 17.3632 124.058 18.0906 123.604 18.7433C122.438 20.4591 120.068 20.944 118.053 20.944C116.296 20.944 114.459 20.5524 113.135 19.3588C112.622 18.8925 112.108 18.2025 111.931 17.5497L111.832 17.1394H115.031C115.15 17.27 115.288 17.4005 115.387 17.4751C116.138 18.0346 117.165 18.2025 118.073 18.2025ZM128.285 6.97513V3.46892H131.346V6.97513H135.375V9.69805H131.346V14.9947C131.346 15.722 131.346 16.4867 131.484 17.1954C131.524 17.4378 131.623 17.8481 131.84 18.016C132.018 18.1652 132.373 18.1838 132.61 18.1838C133.104 18.1838 133.598 18.0906 134.091 17.9973L135.395 17.7176V20.4218L134.625 20.6456C133.953 20.8321 133.183 20.9254 132.492 20.9254C131.544 20.9254 130.615 20.7389 129.865 20.1607C129.154 19.6012 128.798 18.8366 128.581 17.9973C128.344 17.0089 128.304 16.0018 128.304 14.9947V9.69805H125.48V6.97513H128.285ZM141.32 7.42274C142.17 6.91918 143.138 6.71403 144.145 6.71403C144.836 6.71403 145.587 6.80728 146.258 6.99378L147.009 7.21758V10.0337L145.646 9.6421C145.172 9.51155 144.639 9.4556 144.145 9.4556C143.493 9.4556 142.861 9.58615 142.387 10.0337C141.459 10.9103 141.36 12.7753 141.36 13.9316V20.7016H138.318V6.95648H141.36V7.42274H141.32ZM89.6708 8.15009V6.97513H92.7125V20.7389H89.6708V19.5453C88.4462 20.4778 86.9846 20.944 85.3848 20.944C81.0988 20.944 78.0571 17.8295 78.0571 13.8384C78.0571 9.84725 81.0988 6.73268 85.3848 6.73268C86.9846 6.73268 88.4462 7.19893 89.6708 8.15009ZM89.6708 13.8384C89.6708 11.4139 88.0512 9.4556 85.3848 9.4556C82.7184 9.4556 81.0988 11.4139 81.0988 13.8197C81.0988 16.2256 82.7184 18.1838 85.3848 18.1838C88.0512 18.1838 89.6708 16.2442 89.6708 13.8384ZM98.3614 15.1625C98.8552 17.0089 100.396 18.2025 102.47 18.2025C103.497 18.2025 104.465 17.9414 105.294 17.3632C105.393 17.3073 105.492 17.2327 105.59 17.1394H109.284L109.067 17.5497C108.711 18.2025 108.099 18.8179 107.506 19.2842C106.084 20.4032 104.326 20.9254 102.47 20.9254C98.1836 20.9254 95.1419 17.8108 95.1419 13.8197C95.1419 9.8286 98.1836 6.69538 102.47 6.69538C104.109 6.69538 105.689 7.18028 106.993 8.13144C107.921 8.82149 108.652 9.69805 109.126 10.7052C109.857 12.2345 109.837 13.5027 109.758 15.1252H98.3614V15.1625ZM98.4009 12.421H106.538C106.005 10.6306 104.484 9.47425 102.47 9.47425C100.455 9.4556 98.9342 10.6306 98.4009 12.421ZM158.939 13.8384C158.939 11.4325 157.319 9.47425 154.653 9.47425C151.986 9.47425 150.367 11.4325 150.367 13.8384C150.367 16.2442 151.986 18.2025 154.653 18.2025C157.319 18.2025 158.939 16.2442 158.939 13.8384Z" fill="white"/>
<path d="M4.51609 30.3H2.00609V37.3H2.51609V35.01H4.51609C6.27609 35.01 7.33609 34.13 7.33609 32.66C7.33609 31.18 6.27609 30.3 4.51609 30.3ZM4.51609 34.55H2.51609V30.76H4.51609C6.01609 30.76 6.81609 31.45 6.81609 32.66C6.81609 33.86 6.01609 34.55 4.51609 34.55ZM10.4702 32.04C9.66016 32.04 8.90016 32.32 8.38016 32.78L8.63016 33.14C9.06016 32.75 9.71016 32.48 10.4302 32.48C11.4502 32.48 11.9802 33 11.9802 33.97V34.39H10.1902C8.74016 34.39 8.24016 35.06 8.24016 35.85C8.24016 36.74 8.95016 37.34 10.1202 37.34C11.0302 37.34 11.6702 36.97 12.0002 36.37V37.3H12.4802V33.99C12.4802 32.7 11.7602 32.04 10.4702 32.04ZM10.1902 36.93C9.27016 36.93 8.74016 36.51 8.74016 35.83C8.74016 35.23 9.12016 34.78 10.2002 34.78H11.9802V35.76C11.6802 36.51 11.0702 36.93 10.1902 36.93ZM16.6947 34.58C17.3247 34.4 17.7547 33.97 17.7547 33.41C17.7547 32.53 16.8447 32.02 15.7247 32.02C15.1147 32.02 14.4647 32.17 13.8547 32.51L14.0047 32.91C14.5447 32.6 15.1347 32.46 15.6647 32.46C16.5347 32.46 17.2447 32.8 17.2447 33.48C17.2447 34.05 16.6247 34.4 15.8047 34.4H14.9847V34.78H15.8247C16.7847 34.78 17.3947 35.15 17.3947 35.77C17.3947 36.49 16.5847 36.92 15.6347 36.92C14.9947 36.92 14.2947 36.72 13.8147 36.3L13.6147 36.67C14.1647 37.13 14.9247 37.35 15.6447 37.35C16.8647 37.35 17.9047 36.76 17.9047 35.81C17.9047 35.18 17.4647 34.73 16.6947 34.58ZM22.2784 32.04C21.3384 32.04 20.5484 32.51 20.1384 33.31V32.08H19.6584V39.24H20.1584V36.11C20.5784 36.89 21.3584 37.34 22.2784 37.34C23.7484 37.34 24.8584 36.26 24.8584 34.69C24.8584 33.13 23.7484 32.04 22.2784 32.04ZM22.2484 36.89C21.0484 36.89 20.1484 36 20.1484 34.69C20.1484 33.38 21.0484 32.49 22.2484 32.49C23.4484 32.49 24.3584 33.38 24.3584 34.69C24.3584 36 23.4484 36.89 22.2484 36.89ZM28.1948 32.04C27.3848 32.04 26.6248 32.32 26.1048 32.78L26.3548 33.14C26.7848 32.75 27.4348 32.48 28.1548 32.48C29.1748 32.48 29.7048 33 29.7048 33.97V34.39H27.9148C26.4648 34.39 25.9648 35.06 25.9648 35.85C25.9648 36.74 26.6748 37.34 27.8448 37.34C28.7548 37.34 29.3948 36.97 29.7248 36.37V37.3H30.2048V33.99C30.2048 32.7 29.4848 32.04 28.1948 32.04ZM27.9148 36.93C26.9948 36.93 26.4648 36.51 26.4648 35.83C26.4648 35.23 26.8448 34.78 27.9248 34.78H29.7048V35.76C29.4048 36.51 28.7948 36.93 27.9148 36.93ZM34.6563 32.16C33.5663 32.16 32.7163 32.75 32.3663 33.71C32.3963 31.74 33.1163 30.92 34.6963 30.55L36.8963 30.03L36.8163 29.56L34.5063 30.12C32.7463 30.54 31.8863 31.57 31.8863 33.94C31.8863 36 32.8463 37.35 34.5863 37.35C36.0963 37.35 37.1563 36.27 37.1563 34.73C37.1563 33.2 36.1263 32.16 34.6563 32.16ZM34.5963 36.92C33.3863 36.92 32.5363 36.02 32.5363 34.74C32.5363 33.46 33.3863 32.61 34.5963 32.61C35.8063 32.61 36.6463 33.46 36.6463 34.74C36.6463 36.02 35.7963 36.92 34.5963 36.92ZM40.8788 37.34C42.3788 37.34 43.4888 36.24 43.4888 34.69C43.4888 33.14 42.3788 32.04 40.8788 32.04C39.3788 32.04 38.2688 33.14 38.2688 34.69C38.2688 36.24 39.3788 37.34 40.8788 37.34ZM40.8788 36.89C39.6788 36.89 38.7788 36 38.7788 34.69C38.7788 33.38 39.6788 32.49 40.8788 32.49C42.0788 32.49 42.9788 33.38 42.9788 34.69C42.9788 36 42.0788 36.89 40.8788 36.89ZM48.4118 32.08H43.8318V32.53H45.8718V37.3H46.3718V32.53H48.4118V32.08ZM53.3323 37.3H53.9323L51.6523 34.61L53.7723 32.08H53.2223L51.2523 34.45H49.9823V32.08H49.4823V37.3H49.9823V34.88H51.2523L53.3323 37.3ZM56.7983 32.04C55.9883 32.04 55.2283 32.32 54.7083 32.78L54.9583 33.14C55.3883 32.75 56.0383 32.48 56.7583 32.48C57.7783 32.48 58.3083 33 58.3083 33.97V34.39H56.5183C55.0683 34.39 54.5683 35.06 54.5683 35.85C54.5683 36.74 55.2783 37.34 56.4483 37.34C57.3583 37.34 57.9983 36.97 58.3283 36.37V37.3H58.8083V33.99C58.8083 32.7 58.0883 32.04 56.7983 32.04ZM56.5183 36.93C55.5983 36.93 55.0683 36.51 55.0683 35.83C55.0683 35.23 55.4483 34.78 56.5283 34.78H58.3083V35.76C58.0083 36.51 57.3983 36.93 56.5183 36.93ZM63.4081 37.3H63.8481L67.5681 32.85V37.3H68.0681V32.08H67.6281L63.9081 36.53V32.08H63.4081V37.3ZM75.4229 32.04C74.4829 32.04 73.6929 32.51 73.2829 33.31V32.08H72.8029V39.24H73.3029V36.11C73.7229 36.89 74.5029 37.34 75.4229 37.34C76.8929 37.34 78.0029 36.26 78.0029 34.69C78.0029 33.13 76.8929 32.04 75.4229 32.04ZM75.3929 36.89C74.1929 36.89 73.2929 36 73.2929 34.69C73.2929 33.38 74.1929 32.49 75.3929 32.49C76.5929 32.49 77.5029 33.38 77.5029 34.69C77.5029 36 76.5929 36.89 75.3929 36.89ZM81.3393 32.04C80.5293 32.04 79.7693 32.32 79.2493 32.78L79.4993 33.14C79.9293 32.75 80.5793 32.48 81.2993 32.48C82.3193 32.48 82.8493 33 82.8493 33.97V34.39H81.0593C79.6093 34.39 79.1093 35.06 79.1093 35.85C79.1093 36.74 79.8193 37.34 80.9893 37.34C81.8993 37.34 82.5393 36.97 82.8693 36.37V37.3H83.3493V33.99C83.3493 32.7 82.6293 32.04 81.3393 32.04ZM81.0593 36.93C80.1393 36.93 79.6093 36.51 79.6093 35.83C79.6093 35.23 79.9893 34.78 81.0693 34.78H82.8493V35.76C82.5493 36.51 81.9393 36.93 81.0593 36.93ZM87.4908 37.34C88.3208 37.34 89.0408 37.01 89.4708 36.38L89.1008 36.11C88.7208 36.64 88.1408 36.89 87.4908 36.89C86.2608 36.89 85.3608 36.01 85.3608 34.69C85.3608 33.37 86.2608 32.49 87.4908 32.49C88.1408 32.49 88.7208 32.74 89.1008 33.27L89.4708 33C89.0408 32.36 88.3208 32.04 87.4908 32.04C85.9608 32.04 84.8508 33.13 84.8508 34.69C84.8508 36.24 85.9608 37.34 87.4908 37.34ZM94.7972 37.3H95.3972L93.1172 34.61L95.2372 32.08H94.6872L92.7172 34.45H91.4472V32.08H90.9472V37.3H91.4472V34.88H92.7172L94.7972 37.3ZM99.2608 32.04C98.3208 32.04 97.5308 32.51 97.1208 33.31V32.08H96.6408V39.24H97.1408V36.11C97.5608 36.89 98.3408 37.34 99.2608 37.34C100.731 37.34 101.841 36.26 101.841 34.69C101.841 33.13 100.731 32.04 99.2608 32.04ZM99.2308 36.89C98.0308 36.89 97.1308 36 97.1308 34.69C97.1308 33.38 98.0308 32.49 99.2308 32.49C100.431 32.49 101.341 33.38 101.341 34.69C101.341 36 100.431 36.89 99.2308 36.89ZM107.06 32.08L104.97 36.75L102.88 32.08H102.35L104.7 37.28L104.42 37.91C104.1 38.62 103.75 38.84 103.27 38.84C102.88 38.84 102.57 38.71 102.3 38.43L102.05 38.81C102.35 39.12 102.79 39.28 103.26 39.28C103.95 39.28 104.47 38.97 104.89 38.01L107.57 32.08H107.06ZM112.279 32.08H107.699V32.53H109.739V37.3H110.239V32.53H112.279V32.08ZM117.2 37.3H117.8L115.52 34.61L117.64 32.08H117.09L115.12 34.45H113.85V32.08H113.35V37.3H113.85V34.88H115.12L117.2 37.3ZM120.665 32.04C119.855 32.04 119.095 32.32 118.575 32.78L118.825 33.14C119.255 32.75 119.905 32.48 120.625 32.48C121.645 32.48 122.175 33 122.175 33.97V34.39H120.385C118.935 34.39 118.435 35.06 118.435 35.85C118.435 36.74 119.145 37.34 120.315 37.34C121.225 37.34 121.865 36.97 122.195 36.37V37.3H122.675V33.99C122.675 32.7 121.955 32.04 120.665 32.04ZM120.385 36.93C119.465 36.93 118.935 36.51 118.935 35.83C118.935 35.23 119.315 34.78 120.395 34.78H122.175V35.76C121.875 36.51 121.265 36.93 120.385 36.93ZM129.385 37.34C130.215 37.34 130.935 37.01 131.365 36.38L130.995 36.11C130.615 36.64 130.035 36.89 129.385 36.89C128.155 36.89 127.255 36.01 127.255 34.69C127.255 33.37 128.155 32.49 129.385 32.49C130.035 32.49 130.615 32.74 130.995 33.27L131.365 33C130.935 32.36 130.215 32.04 129.385 32.04C127.855 32.04 126.745 33.13 126.745 34.69C126.745 36.24 127.855 37.34 129.385 37.34ZM134.572 32.04C133.762 32.04 133.002 32.32 132.482 32.78L132.732 33.14C133.162 32.75 133.812 32.48 134.532 32.48C135.552 32.48 136.082 33 136.082 33.97V34.39H134.292C132.842 34.39 132.342 35.06 132.342 35.85C132.342 36.74 133.052 37.34 134.222 37.34C135.132 37.34 135.772 36.97 136.102 36.37V37.3H136.582V33.99C136.582 32.7 135.862 32.04 134.572 32.04ZM134.292 36.93C133.372 36.93 132.842 36.51 132.842 35.83C132.842 35.23 133.222 34.78 134.302 34.78H136.082V35.76C135.782 36.51 135.172 36.93 134.292 36.93ZM140.923 31.28C141.743 31.28 142.323 30.83 142.343 30.05H141.963C141.953 30.6 141.513 30.94 140.923 30.94C140.333 30.94 139.893 30.6 139.873 30.05H139.503C139.523 30.83 140.103 31.28 140.923 31.28ZM138.613 37.3H139.053L142.773 32.85V37.3H143.273V32.08H142.833L139.113 36.53V32.08H138.613V37.3ZM148.92 32.08H144.34V32.53H146.38V37.3H146.88V32.53H148.92V32.08ZM151.826 37.34C153.326 37.34 154.436 36.24 154.436 34.69C154.436 33.14 153.326 32.04 151.826 32.04C150.326 32.04 149.216 33.14 149.216 34.69C149.216 36.24 150.326 37.34 151.826 37.34ZM151.826 36.89C150.626 36.89 149.726 36 149.726 34.69C149.726 33.38 150.626 32.49 151.826 32.49C153.026 32.49 153.926 33.38 153.926 34.69C153.926 36 153.026 36.89 151.826 36.89ZM159.154 34.61C159.754 34.44 160.124 34.03 160.124 33.41C160.124 32.54 159.414 32.08 158.264 32.08H156.064V37.3H158.324C159.664 37.3 160.304 36.8 160.304 35.9C160.304 35.19 159.944 34.75 159.154 34.61ZM156.554 32.49H158.234C159.124 32.49 159.624 32.81 159.624 33.47C159.624 34.12 159.124 34.46 158.234 34.46H156.554V32.49ZM158.314 36.89H156.554V34.85H158.394C159.374 34.85 159.804 35.17 159.804 35.88C159.804 36.58 159.284 36.89 158.314 36.89Z" fill="white"/>
</svg>
