<svg width="15" height="15" viewBox="0 0 15 15" fill="none" xmlns="http://www.w3.org/2000/svg">
<path d="M1.54537 1.81136C0.601105 2.75563 0.171479 4.22025 0.986146 5.49505C1.65932 6.54845 2.84102 8.08354 4.91162 10.1541C6.98221 12.2247 8.51731 13.4064 9.5707 14.0796C10.8455 14.8943 12.3101 14.4646 13.2544 13.5204L14.2612 12.5136C15.0423 11.7325 15.0423 10.4662 14.2612 9.68513L12.9407 8.36462C12.3528 7.77673 11.4437 7.65613 10.7229 8.07041C10.2946 8.31655 9.75447 8.2449 9.40517 7.8956L7.17015 5.66058C6.82086 5.31129 6.7492 4.77114 6.99535 4.34286C7.40962 3.62202 7.28903 2.71293 6.70114 2.12505L5.38063 0.804536C4.59958 0.0234868 3.33325 0.023489 2.5522 0.804537L1.54537 1.81136ZM2.10966 4.77707C1.72296 4.17196 1.8549 3.38746 2.48818 2.75417L3.49501 1.74735C3.75536 1.487 4.17747 1.487 4.43782 1.74734L5.75833 3.06785C5.92019 3.22971 5.95339 3.48001 5.83933 3.67847C5.29297 4.62913 5.45202 5.82807 6.22734 6.60339L8.46236 8.83841C9.23769 9.61374 10.4366 9.77279 11.3873 9.22642C11.5857 9.11236 11.836 9.14557 11.9979 9.30743L13.3184 10.6279C13.5788 10.8883 13.5788 11.3104 13.3184 11.5707L12.3116 12.5776C11.6783 13.2109 10.8938 13.3428 10.2887 12.9561C9.33429 12.3462 7.87354 11.2304 5.85443 9.21133C3.83531 7.19222 2.71957 5.73147 2.10966 4.77707ZM9.33325 0.999825C9.33325 0.631635 9.63173 0.333158 9.99992 0.333158C12.5772 0.333158 14.6666 2.4225 14.6666 4.99982C14.6666 5.36801 14.3681 5.66649 13.9999 5.66649C13.6317 5.66649 13.3333 5.36801 13.3333 4.99982C13.3333 3.15888 11.8409 1.66649 9.99992 1.66649C9.63173 1.66649 9.33325 1.36801 9.33325 0.999825ZM9.33325 3.66649C9.33325 3.2983 9.63173 2.99982 9.99992 2.99982C11.1045 2.99982 11.9999 3.89526 11.9999 4.99982C11.9999 5.36801 11.7014 5.66649 11.3333 5.66649C10.9651 5.66649 10.6666 5.36801 10.6666 4.99982C10.6666 4.63163 10.3681 4.33316 9.99992 4.33316C9.63173 4.33316 9.33325 4.03468 9.33325 3.66649Z" fill="white"/>
</svg>
