<svg width="18" height="18" viewBox="0 0 18 18" fill="none" xmlns="http://www.w3.org/2000/svg">
<path d="M7.67338 1.65722C8.23619 0.590499 9.76391 0.590496 10.3267 1.65722L12.2421 5.2876L16.2867 5.98741C17.4752 6.19304 17.9473 7.64599 17.1067 8.51089L14.2459 11.4544L14.8301 15.5173C15.0018 16.7111 13.7659 17.6091 12.6835 17.0769L9.00005 15.2657L5.31657 17.0769C4.23425 17.6091 2.99829 16.7111 3.16997 15.5173L3.75425 11.4544L0.893449 8.51089C0.0528569 7.646 0.524947 6.19304 1.71338 5.98741L5.75797 5.2876L7.67338 1.65722ZM10.9155 5.98756L9.00005 2.35718L7.08464 5.98756C6.8676 6.39893 6.47201 6.68634 6.01371 6.76564L1.96911 7.46545L4.82992 10.409C5.15408 10.7425 5.30518 11.2076 5.23898 11.6679L4.65469 15.7308L8.33818 13.9196C8.75556 13.7144 9.24454 13.7144 9.66193 13.9196L13.3454 15.7308L12.7611 11.6679C12.6949 11.2075 12.846 10.7425 13.1702 10.409L16.031 7.46545L11.9864 6.76564C11.5281 6.68634 11.1325 6.39893 10.9155 5.98756Z" fill="#0F2B3A"/>
</svg>
