<svg width="22" height="22" viewBox="0 0 22 22" fill="none" xmlns="http://www.w3.org/2000/svg">
<circle cx="11" cy="11" r="11" fill="#3292D8"/>
<path d="M16.0971 6.12737C16.3104 6.12737 16.5949 6.06223 16.8082 6.19251C17.0215 6.25765 17.1637 6.51821 17.0926 6.71363C17.0215 7.43017 16.9504 8.14671 16.8082 8.86325C16.4527 11.2734 15.9549 13.6836 15.5283 16.0938C15.5283 16.2892 15.4572 16.4846 15.3149 16.6149C15.0305 17.0057 14.5328 17.2012 14.035 17.0709C13.8217 17.0057 13.6795 16.9406 13.5372 16.8103C12.044 15.8984 10.5507 14.9864 9.05747 14.0093C8.84414 13.879 8.77304 13.5533 8.77304 13.3579C8.84414 13.0322 9.12857 12.7065 9.413 12.5111C10.6218 11.4037 11.9729 10.4266 13.1106 9.31923C13.1817 9.25409 13.2528 9.12381 13.2528 8.99353C13.2528 8.92839 13.1106 8.92839 13.0395 8.92839C12.7551 8.99353 12.5417 9.18895 12.2573 9.31923C10.6218 10.3615 9.05747 11.4037 7.35088 12.3808C7.06645 12.5111 6.85313 12.7065 6.49759 12.7716C5.99984 12.9019 5.50209 12.8368 5.07544 12.7065C4.7199 12.6414 4.36436 12.5111 4.07993 12.4459C3.86661 12.3808 3.58218 12.2505 3.36886 12.1854C3.15553 12.1202 2.8711 11.99 2.65778 11.8597C2.51557 11.7945 2.44446 11.6643 2.44446 11.534C2.44446 11.4037 2.58667 11.3386 2.72889 11.2734C3.86661 10.7523 5.00433 10.2312 6.14205 9.77521C7.27978 9.31923 8.4175 8.86325 9.48411 8.47241C11.1907 7.82101 12.9684 7.16961 14.7461 6.51821C15.2438 6.38793 15.6705 6.19251 16.0971 6.12737Z" fill="white"/>
</svg>
