<svg width="22" height="22" viewBox="0 0 22 22" fill="none" xmlns="http://www.w3.org/2000/svg">
<circle cx="11" cy="11" r="11" fill="#0E972C"/>
<path d="M9.69752 5.05207C10.4881 4.86117 11.3171 4.84196 12.1192 4.97264C12.6354 5.05673 13.138 5.21015 13.6132 5.42875C14.0539 5.63259 14.4679 5.88991 14.8458 6.1949C15.2143 6.48606 15.5483 6.81833 15.8413 7.18527C16.1364 7.55678 16.3835 7.96399 16.5768 8.39729C16.7996 8.9006 16.956 9.43077 17.0419 9.97445C17.0932 10.3357 17.1239 10.7022 17.106 11.0673C17.0791 11.7066 16.9599 12.3447 16.7331 12.943C16.391 13.8475 15.8273 14.6688 15.0995 15.3055C14.7282 15.6304 14.3196 15.9099 13.8822 16.1383C13.3166 16.4331 12.7069 16.6343 12.0769 16.7341C11.2915 16.8635 10.4804 16.8314 9.70521 16.6533C9.23585 16.5467 8.78233 16.3796 8.356 16.1562C8.30731 16.1319 8.2599 16.0999 8.20353 16.0935C8.15228 16.0871 8.1023 16.1011 8.0549 16.1178C7.06958 16.4317 6.08426 16.7439 5.09894 17.0544C5.02847 17.071 4.9644 17.1159 4.89009 17.1107C4.88657 17.0815 4.891 17.0518 4.9029 17.0249C5.24501 16.023 5.57943 15.0173 5.92538 14.0141C5.94972 13.9564 5.93435 13.8924 5.90231 13.8424C5.64073 13.4007 5.4399 12.9258 5.30523 12.4305C5.13738 11.813 5.06178 11.1672 5.09638 10.5279C5.15947 9.45128 5.51279 8.41178 6.11885 7.51967C6.63906 6.76376 7.3284 6.12316 8.12921 5.67346C8.62077 5.39489 9.14856 5.18577 9.69752 5.05207ZM10.6149 5.91688C10.3792 5.94123 10.1421 5.97198 9.91278 6.03732C9.27213 6.20515 8.65454 6.47677 8.11896 6.86753C7.76866 7.12368 7.45523 7.42674 7.18746 7.76822C6.90557 8.12695 6.67494 8.52413 6.49043 8.94052C6.27171 9.43455 6.1416 9.9632 6.10604 10.5023C6.0683 11.1097 6.1399 11.719 6.31746 12.3011C6.46598 12.783 6.68906 13.2386 6.9786 13.6515C7.00807 13.6938 7.03498 13.7412 7.0337 13.795C7.03114 13.8565 7.00295 13.9129 6.98501 13.9718C6.88379 14.269 6.78257 14.565 6.68263 14.8622C6.60447 15.0839 6.53656 15.3081 6.45455 15.5284C6.44687 15.5464 6.45455 15.5643 6.45712 15.5823C6.50068 15.5938 6.53912 15.5643 6.58012 15.5528C7.04395 15.4055 7.50778 15.2607 7.97033 15.1082C8.06258 15.08 8.15099 15.0429 8.24581 15.0224C8.33678 15.0032 8.42903 15.0365 8.50591 15.0839C9.02996 15.3965 9.60527 15.6271 10.2062 15.7373C11.0608 15.8974 11.9513 15.8052 12.7701 15.5259C13.4305 15.3004 14.0336 14.933 14.537 14.4497C15.0264 13.9808 15.4313 13.4183 15.7017 12.7956C16.0233 12.0526 16.1463 11.23 16.0809 10.4241C16.0054 9.5004 15.6492 8.6074 15.0931 7.86815C14.5677 7.17246 13.8528 6.62667 13.0532 6.28203C12.5114 6.05389 11.9328 5.92584 11.3453 5.90407C11.1018 5.89767 10.8571 5.89126 10.6149 5.91688Z" fill="white"/>
<path d="M9.00562 7.93477C9.12862 7.91427 9.24907 7.9604 9.37207 7.95015C9.43229 7.9463 9.49636 7.94887 9.55017 7.97834C9.62577 8.01677 9.67574 8.09108 9.70521 8.16795C9.84871 8.54206 9.98838 8.91746 10.1306 9.29285C10.1562 9.36972 10.1998 9.44531 10.1934 9.52859C10.1895 9.59649 10.1537 9.65543 10.1216 9.71308C10.0383 9.85529 9.92559 9.97701 9.81028 10.0936C9.75646 10.1513 9.69368 10.2025 9.6578 10.2742C9.62705 10.3383 9.66036 10.4075 9.69111 10.4639C9.89997 10.8457 10.1562 11.2031 10.4663 11.508C10.7552 11.7942 11.0878 12.0325 11.4516 12.214C11.5311 12.255 11.6156 12.2857 11.6912 12.3331C11.745 12.3639 11.8065 12.3908 11.8706 12.3882C11.9272 12.3839 11.9801 12.3588 12.0192 12.3178C12.1999 12.1384 12.3652 11.9449 12.5253 11.7476C12.5663 11.7002 12.6086 11.6477 12.6689 11.6259C12.7355 11.6041 12.8034 11.6336 12.8649 11.6592C13.2749 11.8463 13.667 12.0692 14.0642 12.2806C14.1154 12.3075 14.168 12.3395 14.1962 12.3921C14.2295 12.4536 14.2282 12.5253 14.2243 12.5919C14.2077 12.8149 14.1411 13.0365 14.0129 13.221C13.8925 13.3953 13.7234 13.5323 13.535 13.6271C13.3415 13.7245 13.1314 13.7847 12.9174 13.818C12.7707 13.8407 12.6211 13.8377 12.4754 13.8091C12.346 13.7847 12.2217 13.7386 12.0974 13.6989C11.6156 13.5413 11.1403 13.353 10.7059 13.0903C10.3595 12.8786 10.0391 12.6271 9.75134 12.3408C9.41948 12.0141 9.13119 11.6464 8.86468 11.2672C8.70691 11.0405 8.56107 10.8057 8.42775 10.5638C8.33206 10.3963 8.25597 10.2183 8.20096 10.0334C8.14587 9.84889 8.1023 9.65927 8.09333 9.46709C8.08693 9.10195 8.18815 8.7304 8.39957 8.4306C8.49032 8.30146 8.59709 8.18436 8.71733 8.08211C8.79805 8.00652 8.89671 7.95105 9.00562 7.93477Z" fill="white"/>
</svg>
