<svg width="80" height="80" viewBox="0 0 80 80" fill="none" xmlns="http://www.w3.org/2000/svg">
<rect width="80" height="80" fill="#F7AE10"/>
<path d="M46.1865 19.2607C48.1465 19.0146 50.1963 19.5127 51.8095 20.6572C54.3896 22.4277 55.8398 25.833 55.0381 28.8994C54.6767 30.4033 54.0742 31.832 53.4726 33.2519C51.8359 36.9414 49.8984 40.4892 47.8838 43.9843C47.7265 44.3164 47.3418 44.5498 46.9756 44.4267C46.7109 44.3672 46.5547 44.1279 46.4336 43.9072C44.4101 40.3906 42.4609 36.8232 40.8281 33.1064C40.1465 31.5009 39.4687 29.8701 39.1719 28.1425C38.7744 25.3047 40.1514 22.3525 42.4765 20.7109C43.5664 19.9277 44.8545 19.4238 46.1865 19.2607ZM44.6201 21.1855C42.0303 22.2412 40.2637 25.0859 40.6182 27.8818C40.8965 29.4765 41.5273 30.9804 42.1533 32.4648C43.623 35.8222 45.3652 39.0507 47.1699 42.2373C47.4492 41.8095 47.6894 41.3574 47.9375 40.9111C49.4707 38.1601 50.9385 35.3681 52.2011 32.4804C52.8271 30.9941 53.4638 29.4882 53.7422 27.8896C54.0683 25.3144 52.6015 22.6699 50.3242 21.4629C48.5928 20.5185 46.4355 20.416 44.6201 21.1855Z" fill="white"/>
<path d="M46.5751 23.4608C47.54 23.3036 48.5585 23.5311 49.3632 24.0858C50.8798 25.0799 51.4892 27.2079 50.7187 28.8524C50.1347 30.2166 48.7031 31.162 47.2167 31.1551C45.7001 31.1913 44.2236 30.2313 43.6337 28.8348C43.1826 27.8211 43.204 26.6151 43.6865 25.6161C44.2177 24.4803 45.3359 23.6483 46.5751 23.4608ZM46.7675 24.9188C45.9052 25.0604 45.1601 25.7147 44.8964 26.5458C44.5937 27.4383 44.8876 28.495 45.6113 29.1004C46.2138 29.6336 47.0917 29.8153 47.8613 29.5887C48.9882 29.2801 49.7548 28.0682 49.5536 26.9168C49.3876 25.6278 48.0439 24.66 46.7675 24.9188Z" fill="white"/>
<path d="M31.2344 33.0361C31.7032 32.8877 32.1768 32.7529 32.6534 32.6318C33.1094 34.2812 33.5996 35.9199 34.0567 37.5693C36.1397 36.9893 38.1973 36.3203 40.2735 35.7168C40.418 36.1836 40.5704 36.6494 40.6875 37.125C38.1475 37.8867 35.6114 38.6582 33.0723 39.4219C32.4395 37.2998 31.8487 35.1641 31.2344 33.0361Z" fill="white"/>
<path d="M27.3018 34.1992C27.7549 34.0889 28.1963 33.9326 28.6514 33.8311C28.6748 33.8604 28.7207 33.9189 28.7441 33.9482C31.1631 42.3057 33.5762 50.6651 35.9912 59.0235C36.1201 59.501 36.29 59.9678 36.3818 60.4541C35.9189 60.583 35.46 60.7236 34.9951 60.8408C33.6689 56.3135 32.3613 51.7813 31.0645 47.2451C28.1123 48.0684 25.1768 48.9541 22.2236 49.7764C22.084 49.3272 21.9404 48.8779 21.8359 48.4199C21.8652 48.3984 21.9229 48.3545 21.9521 48.333C24.8447 47.4981 27.7363 46.6611 30.6309 45.832C29.5586 41.9443 28.377 38.0859 27.3018 34.1992Z" fill="white"/>
<path d="M33.8115 41.9365C36.6064 41.0918 39.4062 40.2598 42.2061 39.4287C42.3477 39.8984 42.499 40.3643 42.6191 40.8398C40.2861 41.542 37.9434 42.2158 35.6172 42.9395C36.3984 45.6152 37.1406 48.3027 37.9336 50.9756C44.543 49.082 51.1494 47.1758 57.7539 45.2676C57.9043 45.7363 58.0498 46.207 58.1582 46.6875C56.5762 47.1543 54.9805 47.5772 53.4082 48.0723C53.835 49.5879 54.2803 51.0977 54.6953 52.6172C54.2305 52.7637 53.7637 52.9043 53.291 53.0195C52.8477 51.5108 52.4346 49.9932 51.9922 48.4834C50.4043 48.8887 48.8408 49.3877 47.2607 49.8242C44.2871 50.6885 41.3076 51.5322 38.335 52.4004C38.9785 54.6817 39.6436 56.9561 40.2871 59.2373C39.8174 59.3779 39.3496 59.5322 38.8672 59.6299C37.1943 53.7285 35.4775 47.8399 33.8115 41.9365Z" fill="white"/>
</svg>
