<svg width="80" height="80" viewBox="0 0 80 80" fill="none" xmlns="http://www.w3.org/2000/svg">
<rect width="80" height="80" fill="#F7AE10"/>
<path d="M30.2529 19.3262C31.0703 19.1416 31.9209 19.2051 32.7422 19.3272C35.1885 19.7295 37.4873 20.7334 39.6719 21.8731C39.9649 22.0078 40.2481 22.2666 40.2305 22.6172C40.2529 23.1465 39.6182 23.5303 39.1592 23.2608C37.3408 22.3076 35.4531 21.4473 33.4492 20.9629C32.5479 20.7588 31.6113 20.5899 30.6885 20.7354C30.3701 20.8028 29.9756 20.9307 29.876 21.2803C29.7969 21.7334 29.9844 22.1807 30.1768 22.5811C30.6895 23.5488 31.418 24.3838 32.1836 25.1602C33.7168 26.6875 35.4717 27.9766 37.3066 29.1172C39.7334 30.6035 42.4082 31.7862 45.2529 32.1426C46.3438 32.2725 47.4629 32.291 48.541 32.0518C48.8633 31.9619 49.2568 31.9942 49.4668 32.2881C49.792 32.6748 49.5664 33.3408 49.0693 33.4444C47.0625 33.9151 44.9531 33.7041 42.9717 33.2041C40.7793 32.6397 38.709 31.6748 36.7715 30.5147C35.4209 31.8008 34.1279 33.1494 32.7998 34.46C29.627 37.6436 26.4297 40.8037 23.2735 44.002C28.2588 49.0117 33.2676 54 38.2617 59.001C39.1348 58.2031 39.9395 57.334 40.7861 56.5088C46.1572 51.1387 51.5264 45.7656 56.8984 40.3965C57.0576 40.2822 57.0352 40.0772 57.0371 39.9053C56.9912 37.1367 56.9414 34.3692 56.8994 31.6006C56.877 31.4112 56.9453 31.1709 56.7744 31.0352C55.0488 29.3115 53.3232 27.5869 51.6016 25.8594C51.3936 25.6895 51.2354 25.374 50.9356 25.3819C48.0381 25.3291 45.1397 25.2783 42.2412 25.2334C42.0176 25.1934 41.874 25.3848 41.7315 25.5205C40.8897 26.3858 40.0166 27.2217 39.1807 28.0928C38.7822 27.7988 38.4297 27.4326 38.126 27.042C39.1543 26.0362 40.1602 25.0078 41.1826 23.9961C41.3545 23.8115 41.6055 23.7383 41.8535 23.7569C44.915 23.8096 47.9766 23.8623 51.0371 23.9112C51.377 23.9043 51.7647 23.9014 52.0029 24.1905C54.0371 26.2246 56.0732 28.2578 58.1055 30.294C58.3984 30.5488 58.3574 30.96 58.3633 31.3096C58.4131 34.3379 58.4619 37.3672 58.5186 40.3955C58.5391 40.6504 58.4746 40.9131 58.2773 41.0889C51.8018 47.5693 45.3213 54.0469 38.8428 60.5254C38.5645 60.8652 38.0088 60.8731 37.7207 60.542C32.3975 55.2207 27.0752 49.8975 21.7529 44.5752C21.3994 44.2871 21.3936 43.7168 21.7481 43.4277C26.3223 38.8623 30.8799 34.2813 35.4629 29.7256C35.2637 29.5147 35.0068 29.375 34.7725 29.209C33.1143 28.0352 31.5361 26.7266 30.2061 25.1856C29.5235 24.3662 28.8731 23.4834 28.541 22.458C28.3301 21.8047 28.2949 21.0498 28.6455 20.4385C28.9688 19.8379 29.6055 19.4756 30.2529 19.3262Z" fill="white"/>
<path d="M48.8272 29.2147C50.4795 28.8593 52.2842 29.8417 52.8721 31.4267C53.5137 32.9638 52.8965 34.8817 51.4883 35.7665C50.3701 36.5136 48.8262 36.537 47.6777 35.8407C47.4053 35.6806 47.0908 35.4686 47.0772 35.1171C47.0264 34.7313 47.332 34.3544 47.7158 34.3144C48.0156 34.2714 48.2588 34.4813 48.5059 34.6142C49.3057 35.078 50.4053 34.912 51.043 34.245C51.501 33.7909 51.7217 33.1181 51.6387 32.4794C51.5576 31.7987 51.1231 31.1728 50.5147 30.8593C49.8067 30.4862 48.874 30.5438 48.2461 31.0517C48.0059 31.2431 47.7598 31.5048 47.4209 31.4501C46.8828 31.4218 46.5567 30.7206 46.8985 30.2997C47.3926 29.7333 48.0967 29.369 48.8272 29.2147Z" fill="white"/>
<path d="M43.3232 38.0479C43.7793 37.8175 44.3877 38.2179 44.3467 38.7305C44.3242 39.2286 43.8369 39.5011 43.5352 39.837C44.0313 40.6544 44.2627 41.6534 44.0342 42.5948C43.876 43.1925 43.5674 43.7696 43.0928 44.1729C42.6885 44.4835 42.0215 44.2198 41.9561 43.7091C41.8467 43.1817 42.4121 42.9015 42.543 42.4444C42.9727 41.3009 42.1221 39.9727 40.9609 39.7325C40.3125 39.5792 39.5644 39.7862 39.1602 40.335C38.8769 40.7179 38.9375 41.2286 39.0264 41.6661C39.3135 42.9542 39.9121 44.1593 40.1045 45.4708C40.21 46.17 40.1152 46.9249 39.709 47.5196C39.0586 48.4874 37.8242 48.9718 36.6816 48.8175C36.123 48.7696 35.6142 48.5187 35.125 48.2618C34.7637 48.5587 34.4824 49.0968 33.9502 49.0645C33.4463 49.0528 33.1045 48.4405 33.3525 48.003C33.5478 47.7013 33.8369 47.4767 34.0801 47.2169C33.6738 46.4796 33.4053 45.6329 33.543 44.7843C33.6455 44.0558 33.9932 43.336 34.5723 42.8692C34.998 42.5645 35.6719 42.8995 35.6865 43.4229C35.7383 43.9229 35.2002 44.1808 35.0791 44.627C34.668 45.7735 35.5166 47.0919 36.6767 47.3311C37.3135 47.4698 38.0478 47.2853 38.4541 46.752C38.7568 46.3604 38.6865 45.8253 38.6025 45.3722C38.3144 44.1554 37.7812 43.0059 37.5488 41.7755C37.3896 40.9415 37.5068 40.0079 38.0713 39.3429C38.7412 38.5284 39.8389 38.1124 40.8818 38.2325C41.4658 38.2755 41.998 38.5352 42.5088 38.8018C42.7705 38.5421 43.001 38.2364 43.3232 38.0479Z" fill="white"/>
</svg>
