<svg width="80" height="80" viewBox="0 0 80 80" fill="none" xmlns="http://www.w3.org/2000/svg">
<rect width="80" height="80" fill="#F7AE10"/>
<path d="M23.4541 21.4014C25.6885 20.8155 28.0723 20.8155 30.3154 21.3584C31.5488 21.6885 32.8184 22.1934 33.6621 23.1944C34.0352 23.628 34.2578 24.1895 34.2578 24.7637C34.2559 30.0381 34.2568 35.3115 34.2578 40.586C34.2412 41.4864 34.2852 42.3887 34.2363 43.2881C33.7549 43.2901 33.2734 43.2881 32.792 43.2891C32.7861 42.9473 32.7842 42.6055 32.7783 42.2647C31.0098 43.3711 28.8711 43.7002 26.8164 43.6983C24.8525 43.6748 22.8418 43.3018 21.1387 42.2822C21.1377 42.8447 21.0791 43.417 21.1807 43.9737C21.4199 44.5547 22.0117 44.8867 22.5449 45.1612C24.4238 46.0254 26.5527 46.124 28.585 45.9404C28.6553 46.4199 28.7188 46.9014 28.7617 47.3848C26.1777 47.6592 23.4023 47.4346 21.1367 46.0586C21.1279 46.5459 21.1104 47.0352 21.1406 47.5225C21.1445 47.9063 21.4268 48.2022 21.7031 48.4317C22.2871 48.8926 22.9863 49.1807 23.6963 49.3828C25.2363 49.8428 26.8604 49.8594 28.4512 49.7598C28.502 50.2393 28.5742 50.7178 28.585 51.2012C26.0557 51.4346 23.3555 51.1953 21.1377 49.8584C21.1367 50.4072 21.0879 50.9629 21.1631 51.5078C21.3711 52.1035 21.9629 52.4424 22.4912 52.7207C24.375 53.6162 26.5195 53.6944 28.5645 53.5401C28.6172 54.0147 28.6816 54.4883 28.7266 54.9639C26.6572 55.2168 24.5078 55.0625 22.541 54.3408C21.5547 53.9639 20.5654 53.4053 19.9961 52.4834C19.7646 52.1084 19.6523 51.669 19.6582 51.2295C19.6533 43.6113 19.6621 35.9932 19.6533 28.375C19.6582 28.2266 19.6719 28.0782 19.6865 27.9307C20.1641 27.9366 20.6406 27.9356 21.1182 27.9326C21.1436 28.3389 21.0674 28.8096 21.3691 29.1348C21.9443 29.8076 22.8047 30.1387 23.627 30.3994C25.4502 30.9199 27.3936 30.9727 29.2568 30.6485C30.252 30.4512 31.2588 30.1563 32.0928 29.5596C32.4092 29.3174 32.7549 29.0059 32.7744 28.5791C32.8008 28.0821 32.7881 27.583 32.7754 27.086C31.1045 28.0908 29.1328 28.4629 27.2051 28.4991C25.4316 28.5196 23.6211 28.2754 21.9961 27.5352C21.1328 27.1289 20.2822 26.5469 19.8652 25.6592C19.4893 24.875 19.6533 23.9014 20.21 23.2442C21.0176 22.251 22.252 21.7354 23.4541 21.4014ZM25.6914 22.4883C24.375 22.627 23.0234 22.919 21.9053 23.6592C21.5244 23.9395 21.0635 24.3301 21.1406 24.8575C21.2598 25.3604 21.7148 25.6826 22.126 25.9453C23.1016 26.5137 24.2207 26.7862 25.332 26.9336C27.0908 27.1367 28.9092 27.0401 30.5996 26.4844C31.334 26.2237 32.0947 25.8867 32.5889 25.2578C32.8291 24.9737 32.8408 24.5352 32.6162 24.2383C32.208 23.6797 31.5645 23.3575 30.9404 23.0996C29.2754 22.4678 27.4541 22.3369 25.6914 22.4883ZM21.1387 30.8975C21.1436 31.4766 21.0654 32.0713 21.1943 32.6397C21.4775 33.2227 22.084 33.5576 22.6445 33.8301C24.3184 34.5645 26.1904 34.7237 27.9981 34.6035C29.3545 34.4815 30.7471 34.2119 31.916 33.4756C32.2754 33.2276 32.6729 32.9229 32.7627 32.4698C32.8115 31.9483 32.7832 31.4229 32.7773 30.9004C31.0527 31.9463 29.0029 32.3028 27.0107 32.3203C24.9844 32.3174 22.8945 31.9619 21.1387 30.8975ZM21.1396 34.6983C21.1338 35.2539 21.0869 35.8174 21.1729 36.3701C21.3574 36.8614 21.8271 37.1719 22.2627 37.4268C23.457 38.0713 24.8223 38.3242 26.165 38.4121C27.8936 38.499 29.6777 38.3262 31.2744 37.6201C31.8496 37.335 32.4981 36.9893 32.7441 36.3584C32.8291 35.8106 32.7774 35.25 32.7754 34.6973C31.0488 35.7364 29.0029 36.0977 27.0117 36.1123C24.9834 36.1153 22.9014 35.7481 21.1396 34.6983ZM21.1387 38.4893C21.1563 39.0918 21.0332 39.7295 21.2324 40.3086C21.75 41.1182 22.7148 41.4815 23.5908 41.7656C25.627 42.3565 27.8232 42.3731 29.8838 41.8887C30.6758 41.6905 31.4658 41.4043 32.127 40.9141C32.4414 40.6641 32.7793 40.3389 32.7793 39.9063C32.7979 39.4346 32.7891 38.9629 32.7744 38.4912C31.0762 39.5117 29.0684 39.8799 27.1094 39.9053C25.0488 39.919 22.9287 39.5596 21.1387 38.4893Z" fill="white"/>
<path d="M35.9698 28.8643C44.0908 28.8604 52.2129 28.8545 60.335 28.8672C60.3535 33.9454 60.3369 39.0235 60.3428 44.1016C60.3252 45.4883 60.378 46.878 60.3174 48.2647C59.8369 48.2618 59.3574 48.2627 58.877 48.2618C58.8604 42.2862 58.8838 36.3106 58.8653 30.335C51.2344 30.3213 43.6016 30.336 35.9707 30.3272C35.9551 29.8399 35.9531 29.3516 35.9698 28.8643Z" fill="white"/>
<path d="M35.9707 31.7871C41.415 31.7685 46.8604 31.7842 52.3047 31.7793C53.9854 31.793 55.6689 31.751 57.3486 31.8008C57.3437 38.2998 57.3467 44.7988 57.3467 51.2978C53.709 51.3086 50.0713 51.2998 46.4336 51.3027C46.4043 50.8154 46.4102 50.3271 46.4238 49.8398C49.5742 49.8193 52.7256 49.8408 55.877 49.8291C55.877 44.3096 55.8701 38.791 55.8809 33.2715C53.4199 33.2227 50.957 33.2646 48.4961 33.251C44.3213 33.25 40.1465 33.2519 35.9707 33.249C35.9531 32.7617 35.9541 32.2744 35.9707 31.7871Z" fill="white"/>
<path d="M35.9746 35.1368C41.2207 35.1368 46.4658 35.1388 51.7119 35.1359C51.7324 35.7521 51.6582 36.4659 52.1504 36.9337C52.6015 37.4601 53.3379 37.4337 53.9678 37.4074C54.001 37.6183 54.0117 37.8322 54.0078 38.047C53.9941 40.5851 54.0185 43.1232 53.9961 45.6613C53.3691 45.6593 52.6387 45.6105 52.1758 46.1222C51.665 46.5851 51.7226 47.3146 51.7168 47.9406C49.9531 47.9542 48.1875 47.9562 46.4238 47.9396C46.4131 47.4513 46.3984 46.963 46.4385 46.4767C47.7373 46.4689 49.0361 46.4992 50.3349 46.463C50.626 45.4152 51.4687 44.5685 52.5176 44.2785C52.5566 42.4591 52.5244 40.6388 52.5332 38.8195C51.8789 38.5909 51.251 38.2316 50.8418 37.6564C50.6064 37.3429 50.4658 36.9747 50.3281 36.6115C45.543 36.5988 40.7568 36.6193 35.9717 36.6017C35.9541 36.1144 35.9512 35.6251 35.9746 35.1368Z" fill="white"/>
<path d="M39.4727 38.1037C40.4483 37.7072 41.6084 37.8195 42.4961 38.3849C43.7168 39.1408 44.3809 40.6408 44.207 42.0558C44.1397 42.7286 43.8691 43.3683 43.4854 43.922C43.0713 43.6671 42.6836 43.3683 42.3184 43.047C42.5488 42.6544 42.7432 42.2247 42.7568 41.7609C42.834 40.7999 42.2715 39.7785 41.3438 39.4484C40.6309 39.1789 39.79 39.4074 39.2803 39.963C38.6768 40.5773 38.5381 41.4992 38.7168 42.3165C38.251 42.4542 37.7871 42.5978 37.3164 42.7169C37.1309 41.9816 37.1133 41.1964 37.3399 40.4679C37.6524 39.4171 38.4414 38.5001 39.4727 38.1037Z" fill="white"/>
<path d="M48.3418 40.3516C49.0488 40.1251 49.8486 40.7227 49.832 41.4649C49.8672 42.1905 49.1172 42.8048 48.4111 42.626C47.6894 42.4952 47.2607 41.6114 47.6054 40.9629C47.749 40.6661 48.0244 40.4385 48.3418 40.3516Z" fill="white"/>
<path d="M31.7744 45.2489C33.3008 44.3212 35.1113 43.9872 36.874 43.9071C38.9072 43.8486 41.0176 44.1064 42.8359 45.0712C43.8027 45.5907 44.7295 46.4814 44.7588 47.6513C44.7451 50.2118 44.7646 52.7734 44.748 55.3339C44.7207 56.3827 43.9219 57.2109 43.0722 57.7226C41.4482 58.6904 39.5205 58.9931 37.6572 59.039C35.706 59.0478 33.6875 58.7577 31.9619 57.7978C31.0312 57.2763 30.1396 56.3798 30.1562 55.2402C30.1621 53.8124 30.1396 52.3837 30.1592 50.955C30.6426 50.9462 31.1269 50.9472 31.6113 50.954C31.6406 51.3017 31.5869 51.6972 31.8135 51.9931C32.1924 52.4892 32.7568 52.7988 33.3203 53.0409C35.0224 53.7353 36.9043 53.871 38.7207 53.7167C40.0107 53.581 41.3291 53.2988 42.4375 52.5947C42.8125 52.3339 43.2383 51.997 43.2676 51.5029C43.3027 50.9989 43.2705 50.4931 43.292 49.9892C41.4541 51.1562 39.2099 51.4648 37.0713 51.4325C35.2441 51.373 33.3584 51.0458 31.7754 50.0829C30.917 49.5585 30.1211 48.6845 30.1582 47.6171C30.1699 46.5868 30.9453 45.7607 31.7744 45.2489ZM36.0429 45.4384C34.8281 45.581 33.5918 45.8554 32.539 46.5038C32.1582 46.7587 31.7461 47.0741 31.6357 47.5429C31.5635 47.9726 31.8926 48.3271 32.1963 48.581C32.8994 49.1445 33.7744 49.4394 34.6367 49.6572C36.5361 50.0849 38.5381 50.078 40.4306 49.6171C41.3242 49.3739 42.248 49.0527 42.9219 48.3905C43.2383 48.1034 43.4013 47.5917 43.1387 47.2177C42.7344 46.6171 42.0488 46.29 41.3994 46.0214C39.6972 45.3876 37.8398 45.2646 36.0429 45.4384ZM31.622 53.7958C31.6465 54.3583 31.581 54.9286 31.6621 55.4863C31.8603 56.0263 32.3847 56.3515 32.8633 56.6191C34.1592 57.2773 35.6279 57.5146 37.0683 57.5644C38.7207 57.5995 40.4219 57.3964 41.9277 56.6796C42.4541 56.3993 43.0469 56.0585 43.2519 55.4638C43.3222 54.912 43.2597 54.3525 43.292 53.7978C41.5097 54.9267 39.3428 55.2509 37.2676 55.2441C35.3164 55.204 33.29 54.8661 31.622 53.7958Z" fill="white"/>
</svg>
